SplineFontDB: 3.2
FontName: ARCORegular
FullName: ARCO Regular
FamilyName: ARCO
Weight: Regular
Copyright: (c) 2019, Rafael Olivo Di'az, Denis Ignatov
Version: 
ItalicAngle: 0
UnderlinePosition: 0
UnderlineWidth: 0
Ascent: 2047
Descent: 300
InvalidEm: 0
sfntRevision: 0x00010000
LayerCount: 2
Layer: 0 0 "Back" 1
Layer: 1 0 "Fore" 0
XUID: [1021 683 -2137286208 20858]
StyleMap: 0x0020
FSType: 0
OS2Version: 3
OS2_WeightWidthSlopeOnly: 0
OS2_UseTypoMetrics: 0
CreationTime: 1740875888
ModificationTime: 1740905835
PfmFamily: 17
TTFWeight: 700
TTFWidth: 5
LineGap: 0
VLineGap: 0
Panose: 2 0 8 0 0 0 0 0 0 0
OS2TypoAscent: 1568
OS2TypoAOffset: 0
OS2TypoDescent: 0
OS2TypoDOffset: 0
OS2TypoLinegap: 0
OS2WinAscent: 2354
OS2WinAOffset: 0
OS2WinDescent: 144
OS2WinDOffset: 0
HheadAscent: 1568
HheadAOffset: 0
HheadDescent: 0
HheadDOffset: 0
OS2SubXSize: 709
OS2SubYSize: 764
OS2SubXOff: 0
OS2SubYOff: 154
OS2SupXSize: 709
OS2SupYSize: 764
OS2SupXOff: 0
OS2SupYOff: 523
OS2StrikeYSize: 53
OS2StrikeYPos: 281
OS2CapHeight: 1687
OS2XHeight: 1699
OS2Vendor: 'XXXX'
OS2CodePages: 00000001.00000000
OS2UnicodeRanges: 00000223.0000000a.00000000.00000000
MarkAttachClasses: 1
DEI: 91125
LangName: 1033 "+AKkA 2019, Rafael Olivo D+AO0A-az, Denis Ignatov" "" "" "Rafael Olivo D+AO0A-az: ARCO Regular" "" "" "" " " "Rafael Olivo D+AO0A-az" "Rafael Olivo D+AO0A-az, Denis Ignatov" " " "https://www.behance.net/rafaelolivod" "https://www.behance.net/rafaelolivod, https://mutno.me/fonts" "SIL Open Font License (OFL)" "https://scripts.sil.org/OFL" "" "ARCO" "Regular"
Encoding: UnicodeBmp
Compacted: 1
UnicodeInterp: none
NameList: AGL For New Fonts
DisplaySize: -48
AntiAlias: 1
FitToEm: 0
WidthSeparation: 200
WinInfo: 0 30 12
BeginPrivate: 0
EndPrivate
BeginChars: 65600 65

StartChar: exclam
Encoding: 33 33 0
Width: 725
VWidth: 2237
GlyphClass: 1
Flags: W
HStem: 0 518<211.222 524.092>
VStem: 69 583<716.714 1655.37> 104 527<109.914 411.286>
LayerCount: 2
Fore
SplineSet
398 579 m 0xc0
 379 578 362 578 346 578 c 0
 260 578 201 586 163 607 c 0
 144 617 127 667 113 760 c 0
 99 852 87 958 79 1071 c 0
 71 1183 70 1291 69 1395 c 0
 69 1421 69 1446 69 1468 c 0
 69 1534 72 1580 74 1606 c 0
 76 1636 110 1657 166 1672 c 0
 222 1687 287 1697 355 1698 c 0
 364 1698 375 1699 384 1699 c 0
 440 1699 498 1692 546 1683 c 0
 602 1673 635 1654 637 1629 c 0
 645 1561 651 1473 652 1364 c 0
 652 1345 652 1328 652 1309 c 0
 652 1219 649 1130 645 1042 c 0
 641 938 631 845 622 765 c 0
 612 684 599 637 585 623 c 1
 571 597 510 581 398 579 c 0xc0
177 80 m 0
 135 122 113 175 107 232 c 0
 106 242 104 254 104 264 c 0
 104 333 133 395 187 447 c 0
 238 495 293 518 358 518 c 0
 373 518 388 517 404 515 c 0
 496 500 561 463 594 403 c 0
 619 359 631 314 631 268 c 0xa0
 631 250 630 234 627 216 c 0
 614 152 580 98 528 53 c 0
 486 16 437 0 380 0 c 0
 362 0 345 1 326 3 c 0
 270 12 219 38 177 80 c 0
EndSplineSet
Validated: 1
EndChar

StartChar: zero
Encoding: 48 48 1
Width: 1544
VWidth: 2237
GlyphClass: 1
Flags: W
HStem: 2 21G<669 945> 1077 587<648.497 917.842>
VStem: 77 500<661.377 1005.75> 991 498<654.961 1004.5>
LayerCount: 2
Fore
SplineSet
1327 234 m 0
 1231 91 1064 11 826 2 c 0
 812 2 800 2 786 2 c 0
 552 2 374 80 251 238 c 0
 135 386 77 584 77 822 c 0
 77 849 78 878 79 907 c 0
 92 1103 141 1273 231 1416 c 0
 320 1559 486 1641 724 1660 c 0
 749 1662 776 1664 800 1664 c 0
 1019 1664 1187 1587 1309 1430 c 0
 1429 1275 1489 1081 1489 846 c 0
 1489 817 1488 788 1487 758 c 0
 1474 553 1423 378 1327 234 c 0
936 1010 m 0
 898 1056 852 1077 788 1077 c 0
 781 1077 773 1076 766 1076 c 0
 697 1070 648 1047 622 1004 c 0
 595 962 580 909 578 853 c 0
 577 844 577 834 577 825 c 0
 577 757 593 702 626 658 c 0
 663 612 716 589 784 589 c 0
 787 589 791 589 794 589 c 0
 863 591 916 614 943 657 c 0
 970 700 987 751 990 811 c 0
 990 818 991 829 991 836 c 0
 991 905 973 963 936 1010 c 0
EndSplineSet
Validated: 1
EndChar

StartChar: one
Encoding: 49 49 2
Width: 1265
VWidth: 2237
GlyphClass: 1
Flags: W
HStem: 0 21G<748.5 809> 0 21G<748.5 809> 1655 20G<818 852.5> 1655 20G<818 852.5>
VStem: 511 667<163.988 891>
LayerCount: 2
Fore
SplineSet
868 1 m 0xa8
 843 0 820 0 798 0 c 0
 699 0 624 10 577 30 c 0
 550 40 533 140 529 323 c 0
 525 506 519 698 511 891 c 1
 465 872 414 853 367 837 c 0
 324 822 296 814 281 814 c 0
 279 814 276 815 275 815 c 0
 274 815 l 0
 242 815 194 868 138 971 c 0
 81 1075 46 1158 42 1222 c 0
 42 1223 42 1223 42 1224 c 0
 42 1253 85 1300 169 1367 c 0
 256 1436 376 1523 533 1621 c 0
 562 1639 610 1653 678 1663 c 0
 732 1670 790 1675 846 1675 c 0
 859 1675 870 1674 883 1674 c 0
 952 1672 1017 1662 1072 1644 c 0
 1126 1626 1156 1601 1159 1563 c 0
 1169 1459 1177 1325 1178 1164 c 0
 1178 1127 1178 1090 1178 1053 c 0
 1178 929 1175 805 1171 683 c 0
 1165 526 1155 387 1141 266 c 0
 1127 145 1112 75 1096 53 c 1
 1081 23 1005 5 868 1 c 0xa8
EndSplineSet
Validated: 1
EndChar

StartChar: two
Encoding: 50 50 3
Width: 1374
VWidth: 2237
GlyphClass: 1
Flags: W
HStem: 1 496<728 1261.17> 1165 507<555.788 752.921>
LayerCount: 2
Fore
SplineSet
46 214 m 0
 47 325 52 391 56 416 c 0
 98 587 172 715 283 802 c 0
 394 888 529 958 678 1018 c 0
 734 1040 761 1064 761 1088 c 0
 761 1089 761 1094 761 1095 c 0
 757 1121 738 1139 708 1153 c 0
 689 1160 671 1165 650 1165 c 0
 636 1165 624 1162 610 1159 c 0
 573 1151 551 1126 550 1083 c 0
 549 1067 544 1054 535 1041 c 0
 515 1020 480 1010 431 1010 c 0
 429 1010 425 1010 423 1010 c 0
 369 1011 315 1018 263 1028 c 0
 226 1036 192 1042 162 1055 c 0
 131 1068 105 1088 80 1117 c 0
 67 1131 63 1149 63 1171 c 0
 63 1203 74 1243 98 1292 c 0
 140 1378 177 1437 209 1470 c 0
 313 1579 442 1645 591 1665 c 0
 625 1669 661 1672 694 1672 c 0
 806 1672 911 1646 1009 1594 c 0
 1132 1528 1224 1420 1281 1273 c 0
 1307 1206 1321 1142 1321 1078 c 0
 1321 1002 1305 929 1264 860 c 0
 1200 749 1109 677 993 640 c 0
 877 603 785 554 728 497 c 1
 821 499 913 505 1006 507 c 0
 1052 508 1091 509 1122 509 c 0
 1153 509 1175 508 1190 507 c 0
 1219 506 1245 483 1264 440 c 0
 1283 396 1293 345 1301 291 c 0
 1305 259 1310 229 1310 198 c 0
 1310 177 1309 156 1308 135 c 0
 1304 83 1289 48 1270 30 c 0
 1260 21 1193 11 1077 8 c 0
 961 5 831 1 690 1 c 0
 549 1 418 5 295 8 c 0
 172 11 102 20 80 29 c 0
 58 42 46 94 46 186 c 0
 46 194 46 205 46 214 c 0
EndSplineSet
Validated: 1
EndChar

StartChar: three
Encoding: 51 51 4
Width: 1378
VWidth: 2237
GlyphClass: 1
Flags: W
HStem: -4 523<529.715 721.229> 1141 536<174.289 531>
VStem: 96 1192<1290.01 1608.96>
LayerCount: 2
Fore
SplineSet
1306 432 m 0
 1286 352 1251 281 1199 220 c 0
 1146 159 1083 111 1011 74 c 0
 939 36 854 11 758 1 c 0
 724 -2 690 -4 657 -4 c 0
 601 -4 542 1 490 14 c 0
 274 68 125 203 36 413 c 0
 33 422 30 431 30 439 c 0
 30 465 46 490 77 514 c 0
 120 545 169 573 229 593 c 0
 289 613 349 625 405 631 c 0
 427 633 445 637 461 637 c 0
 486 637 502 633 509 626 c 0
 519 613 527 599 528 583 c 0
 530 540 549 519 590 519 c 0
 604 519 620 522 639 526 c 0
 699 542 729 565 729 594 c 0
 729 598 725 605 724 609 c 0
 710 650 661 693 572 742 c 0
 483 791 437 852 435 926 c 0
 435 927 435 930 435 932 c 0
 435 950 442 976 450 1010 c 0
 459 1049 485 1092 531 1141 c 1
 392 1143 296 1149 243 1153 c 0
 206 1155 179 1178 155 1221 c 0
 130 1263 115 1310 106 1363 c 0
 100 1397 96 1432 96 1465 c 0
 96 1483 96 1501 98 1519 c 0
 102 1570 118 1603 143 1627 c 0
 162 1645 227 1660 338 1668 c 0
 431 1675 532 1677 635 1677 c 0
 655 1677 675 1677 696 1677 c 0
 823 1675 946 1668 1058 1658 c 0
 1169 1645 1235 1630 1255 1610 c 0
 1277 1588 1288 1552 1288 1507 c 0
 1288 1458 1275 1394 1248 1317 c 0
 1196 1171 1145 1058 1099 979 c 1
 1250 879 1328 746 1328 586 c 0
 1328 538 1320 485 1306 432 c 0
EndSplineSet
Validated: 1
EndChar

StartChar: four
Encoding: 52 52 5
Width: 1564
VWidth: 2237
GlyphClass: 1
Flags: W
HStem: 0 21G<866.5 922> 0 21G<866.5 922> 1649 20G<959.5 1024>
VStem: 70 575<724 915.666>
LayerCount: 2
Fore
SplineSet
1514 699 m 0xb0
 1510 576 1497 491 1475 440 c 0
 1466 416 1382 400 1233 392 c 1
 1227 302 1218 228 1210 167 c 0
 1202 106 1192 66 1183 52 c 0
 1169 23 1097 5 974 1 c 0
 952 0 932 0 912 0 c 0
 821 0 753 10 710 30 c 0
 695 36 683 72 674 138 c 0
 665 204 653 285 647 383 c 1
 515 385 401 386 304 386 c 0
 206 386 153 392 145 400 c 0
 116 425 92 493 78 615 c 0
 72 662 70 705 70 743 c 0
 70 800 77 849 91 882 c 0
 143 998 229 1126 352 1262 c 0
 475 1397 577 1506 663 1586 c 0
 693 1615 738 1633 802 1648 c 0
 866 1662 927 1669 992 1669 c 0
 1056 1668 1110 1660 1161 1642 c 0
 1210 1624 1240 1599 1242 1566 c 0
 1250 1489 1253 1395 1255 1284 c 0
 1256 1219 1256 1152 1256 1085 c 0
 1256 1038 1256 989 1256 940 c 1
 1391 934 1467 922 1486 907 c 0
 1506 894 1515 846 1515 760 c 0
 1515 741 1515 721 1514 699 c 0xb0
818 921 m 0
 814 973 804 999 797 999 c 0
 796 999 797 999 796 999 c 0
 777 993 748 968 706 926 c 0
 664 884 645 855 645 837 c 0
 645 823 675 816 730 816 c 0
 739 816 750 815 758 815 c 0
 796 815 815 817 817 820 c 0
 820 826 821 839 821 858 c 0
 821 874 820 894 818 921 c 0
EndSplineSet
Validated: 1
EndChar

StartChar: five
Encoding: 53 53 6
Width: 1348
VWidth: 2237
GlyphClass: 1
Flags: W
HStem: 724 944<245.286 698.629> 1153 515<838 1175.83>
LayerCount: 2
Fore
SplineSet
1205 1434 m 0x80
 1203 1321 1190 1238 1176 1191 c 0
 1173 1177 1136 1169 1065 1165 c 0
 994 1161 918 1155 838 1153 c 1x40
 934 1145 1034 1087 1143 979 c 0
 1245 879 1296 755 1296 616 c 0
 1296 609 1296 602 1296 595 c 1
 1296 592 1296 586 1296 583 c 0
 1296 427 1244 294 1135 191 c 0
 1024 83 894 19 748 0 c 0
 717 -3 686 -6 655 -6 c 0
 532 -6 415 25 303 90 c 0
 164 170 73 293 40 452 c 0
 38 461 38 471 38 479 c 0
 38 528 69 572 132 603 c 0
 181 629 265 645 385 651 c 0
 398 652 409 652 419 652 c 0
 516 652 571 622 581 569 c 0
 582 566 585 560 587 556 c 0
 595 536 611 521 631 513 c 0
 645 509 659 503 669 503 c 0
 687 503 702 510 715 523 c 0
 735 543 744 566 744 593 c 0
 744 594 744 596 744 597 c 0
 743 627 727 657 700 683 c 0
 671 710 626 724 562 724 c 0
 546 723 529 723 510 723 c 0
 480 723 448 724 414 725 c 0
 326 728 271 745 244 774 c 0
 217 803 195 842 185 894 c 0
 160 1010 144 1154 140 1321 c 0
 139 1342 139 1364 139 1383 c 0
 139 1516 156 1594 187 1625 c 0
 201 1639 256 1650 355 1656 c 0
 454 1664 562 1668 678 1668 c 0
 794 1668 905 1665 1005 1657 c 0
 1105 1651 1162 1638 1178 1623 c 0
 1194 1613 1207 1563 1207 1474 c 0
 1207 1461 1205 1448 1205 1434 c 0x80
EndSplineSet
Validated: 1
EndChar

StartChar: six
Encoding: 54 54 7
Width: 1407
VWidth: 2237
GlyphClass: 1
Flags: W
HStem: 1 21G<701 743.5> 1 21G<701 743.5> 1661 20G<958.5 980.5> 1661 20G<958.5 980.5>
VStem: 72 557<523.349 728.219>
LayerCount: 2
Fore
SplineSet
634 589 m 0x08
 649 538 679 512 723 512 c 0
 726 512 732 513 736 513 c 0
 782 516 804 544 804 596 c 0
 804 599 804 604 804 607 c 0
 802 637 788 663 763 685 c 0
 748 700 731 707 712 707 c 0
 702 707 692 703 679 699 c 0
 646 685 629 662 629 629 c 0
 629 616 630 604 634 589 c 0x08
73 758 m 0
 77 885 110 1008 174 1129 c 0
 238 1251 331 1360 454 1458 c 0
 577 1557 740 1631 938 1677 c 0
 946 1678 955 1681 962 1681 c 0
 999 1681 1029 1662 1058 1624 c 0
 1091 1579 1120 1527 1139 1470 c 0
 1158 1414 1171 1356 1173 1304 c 0
 1173 1296 1174 1285 1174 1278 c 0
 1174 1240 1168 1222 1155 1218 c 0
 1124 1208 1091 1193 1058 1183 c 0
 1025 1174 990 1158 953 1134 c 1
 1054 1103 1150 1033 1229 933 c 0
 1308 833 1350 720 1353 604 c 0
 1353 597 1356 587 1356 580 c 0
 1356 429 1302 298 1202 196 c 0
 1093 88 968 25 822 6 c 0
 791 3 759 1 728 1 c 0xa8
 674 1 616 6 562 19 c 0
 475 38 397 72 328 124 c 0
 227 199 156 299 117 413 c 0
 87 501 72 596 72 699 c 0
 72 719 72 738 73 758 c 0
EndSplineSet
Validated: 1
EndChar

StartChar: seven
Encoding: 55 55 8
Width: 1362
VWidth: 2237
GlyphClass: 1
Flags: W
HStem: 1 21G<649.5 741.5> 1 21G<649.5 741.5> 1654 20G<703 770.5> 1654 20G<703 770.5>
LayerCount: 2
Fore
SplineSet
877 8 m 0x60
 826 4 772 1 711 1 c 0
 701 1 685 1 675 1 c 0xa0
 624 1 577 2 530 4 c 0
 473 6 426 14 399 22 c 0
 385 25 382 49 382 94 c 0
 382 147 389 231 408 343 c 0
 441 548 476 756 518 972 c 1
 410 973 321 978 244 986 c 0
 166 994 119 1002 103 1016 c 0
 88 1024 75 1055 69 1107 c 0
 61 1159 59 1212 59 1277 c 0
 59 1341 62 1403 66 1464 c 0
 70 1525 81 1570 90 1600 c 0
 98 1625 159 1643 271 1656 c 0
 383 1666 508 1671 646 1672 c 0
 668 1672 692 1674 714 1674 c 0
 827 1674 937 1671 1041 1664 c 0
 1166 1656 1246 1647 1283 1634 c 0
 1308 1626 1321 1587 1321 1519 c 0
 1321 1478 1316 1427 1308 1366 c 0
 1284 1201 1251 1023 1205 830 c 0
 1159 637 1111 457 1062 292 c 0
 1013 127 978 41 964 27 c 0
 955 19 926 11 877 8 c 0x60
EndSplineSet
Validated: 1
EndChar

StartChar: eight
Encoding: 56 56 9
Width: 1497
VWidth: 2237
GlyphClass: 1
Flags: W
HStem: 717 368<667.468 821.759>
VStem: 65 584<537.581 706.431>
LayerCount: 2
Fore
SplineSet
663 1149 m 0
 673 1106 701 1085 745 1085 c 0
 748 1085 754 1085 757 1085 c 0
 803 1088 824 1115 824 1159 c 0
 824 1163 824 1170 824 1174 c 0
 822 1203 812 1225 787 1239 c 0
 773 1246 759 1251 743 1251 c 0
 729 1251 715 1247 700 1241 c 0
 673 1231 658 1208 658 1179 c 0
 658 1170 661 1159 663 1149 c 0
655 596 m 0
 668 550 697 527 743 527 c 0
 747 527 754 530 758 530 c 0
 809 533 835 563 835 612 c 0
 835 616 834 623 834 627 c 0
 832 658 815 683 788 701 c 0
 773 710 758 717 742 717 c 0
 727 717 710 712 694 704 c 0
 664 689 649 664 649 633 c 0
 649 623 652 609 655 596 c 0
257 191 m 0
 126 293 65 425 65 583 c 0
 65 628 70 676 79 724 c 0
 95 803 127 876 172 943 c 1
 138 1010 120 1081 120 1157 c 0
 120 1195 125 1232 133 1273 c 0
 163 1415 248 1536 389 1634 c 0
 476 1695 583 1724 709 1724 c 0
 787 1724 874 1714 968 1690 c 0
 1070 1660 1166 1597 1245 1503 c 0
 1324 1409 1370 1309 1373 1199 c 0
 1373 1193 1373 1188 1373 1182 c 0
 1373 1104 1353 1030 1319 963 c 1
 1398 863 1445 753 1448 641 c 0
 1448 633 1448 623 1448 615 c 0
 1448 459 1391 330 1279 228 c 0
 1158 118 1015 56 854 37 c 0
 812 33 774 27 733 27 c 0
 551 27 393 81 257 191 c 0
EndSplineSet
Validated: 1
EndChar

StartChar: nine
Encoding: 57 57 10
Width: 1417
VWidth: 2237
GlyphClass: 1
Flags: W
HStem: 1 21G<555.5 669.5> 1 21G<555.5 669.5> 1648 20G<603.5 761>
VStem: 57 557<969.203 1150.44> 784 581<953.891 1145.99>
LayerCount: 2
Fore
SplineSet
782 1071 m 0x38
 774 1127 744 1156 693 1156 c 0
 642 1156 616 1127 614 1071 c 0
 614 1068 614 1062 614 1059 c 0
 614 1032 621 1006 640 984 c 0
 654 966 672 959 693 959 c 0
 702 959 713 961 723 963 c 0
 764 973 784 1002 784 1046 c 0
 784 1053 783 1063 782 1071 c 0x38
1362 941 m 0
 1356 802 1324 670 1260 545 c 0
 1196 420 1108 307 995 210 c 0
 881 113 747 44 592 1 c 1
 588 1 581 1 577 1 c 0xb8
 534 1 495 18 457 52 c 0
 414 93 381 137 356 189 c 0
 330 241 313 287 311 332 c 0
 311 338 311 345 311 349 c 0
 311 383 321 407 345 414 c 0
 364 418 398 427 450 441 c 0
 501 455 533 473 547 497 c 1
 398 519 274 590 180 712 c 0
 99 816 57 934 57 1065 c 0
 57 1086 57 1107 59 1128 c 0
 75 1289 146 1419 269 1515 c 0
 392 1612 529 1664 678 1668 c 0
 686 1668 696 1668 704 1668 c 0
 818 1668 928 1643 1029 1590 c 0
 1138 1534 1222 1448 1278 1336 c 0
 1334 1222 1365 1102 1365 976 c 0
 1365 966 1362 951 1362 941 c 0
EndSplineSet
Validated: 1
EndChar

StartChar: question
Encoding: 63 63 11
Width: 1200
VWidth: 2237
GlyphClass: 1
Flags: W
HStem: 1 471<373.058 666.23> 1238 479<456.159 676>
VStem: 277 481<95.6103 380.872>
LayerCount: 2
Fore
SplineSet
223 1166 m 0
 163 1185 117 1209 80 1239 c 0
 48 1265 33 1292 33 1323 c 0
 33 1330 33 1343 35 1351 c 0
 62 1448 119 1529 205 1597 c 0
 291 1665 380 1706 480 1714 c 0
 501 1716 524 1717 544 1717 c 0
 640 1717 729 1696 810 1653 c 0
 908 1602 990 1540 1047 1454 c 0
 1103 1370 1138 1274 1147 1172 c 0
 1148 1159 1148 1146 1148 1133 c 0
 1148 1043 1123 958 1072 874 c 0
 1012 776 904 708 749 666 c 0
 715 659 699 630 699 583 c 0
 699 580 699 574 699 571 c 0
 699 570 699 569 699 568 c 0
 699 549 679 532 638 524 c 0
 595 514 549 508 497 507 c 0
 491 507 483 507 477 507 c 0
 432 507 393 510 355 517 c 0
 314 524 296 539 296 557 c 0
 296 558 296 559 296 560 c 1
 289 611 282 656 282 697 c 0
 282 731 286 764 292 791 c 0
 306 851 329 900 366 942 c 0
 411 995 471 1033 545 1052 c 0
 619 1071 661 1095 675 1121 c 0
 682 1136 687 1149 687 1159 c 0
 687 1192 655 1216 594 1230 c 0
 573 1234 554 1238 536 1238 c 0
 489 1238 461 1219 454 1181 c 0
 447 1149 424 1132 390 1132 c 0
 388 1132 384 1133 381 1133 c 0
 335 1135 280 1147 223 1166 c 0
347 74 m 0
 301 119 277 171 277 231 c 0
 277 245 278 258 280 273 c 0
 289 337 323 385 375 426 c 0
 417 457 461 472 509 472 c 0
 523 472 537 471 552 469 c 0
 599 461 642 444 680 415 c 0
 717 388 740 349 750 298 c 0
 754 278 758 257 758 238 c 0
 758 191 744 146 714 102 c 0
 672 45 618 10 547 2 c 0
 539 1 528 1 520 1 c 0
 454 1 396 25 347 74 c 0
EndSplineSet
Validated: 1
EndChar

StartChar: A
Encoding: 65 65 12
Width: 1685
VWidth: 2237
GlyphClass: 1
Flags: W
HStem: 1 21G<1170 1190.5> 1 21G<1170 1190.5> 337 375<676.471 951.403> 1647 20G<842 880>
LayerCount: 2
Fore
SplineSet
44 92 m 0xb0
 44 95 44 98 44 101 c 0
 44 172 56 277 81 413 c 0
 107 555 139 699 180 853 c 0
 221 1007 260 1150 305 1285 c 0
 349 1420 388 1514 420 1568 c 0
 434 1590 470 1608 535 1626 c 0
 599 1644 669 1654 747 1660 c 0
 786 1663 823 1667 861 1667 c 0
 899 1667 933 1663 970 1660 c 0
 1041 1654 1090 1638 1119 1612 c 0
 1161 1571 1210 1488 1265 1353 c 0
 1320 1218 1374 1074 1427 917 c 0
 1480 760 1528 608 1571 464 c 0
 1614 320 1640 218 1654 158 c 0
 1657 142 1661 129 1661 116 c 0
 1661 95 1654 78 1645 68 c 0
 1630 50 1605 37 1566 31 c 0
 1501 21 1424 12 1328 8 c 0
 1259 5 1206 1 1175 1 c 0
 1165 1 1154 1 1148 2 c 0
 1139 4 1132 11 1124 14 c 0
 1098 30 1073 74 1048 151 c 0
 1023 228 1000 280 976 309 c 0
 962 327 945 334 921 336 c 2
 743 337 l 2
 688 336 648 319 632 282 c 0
 610 236 585 187 558 131 c 0
 531 76 510 40 496 26 c 0
 490 18 481 11 467 9 c 0
 448 6 415 3 367 3 c 0
 336 3 298 3 255 4 c 0
 143 6 80 20 65 39 c 0
 51 54 45 72 44 92 c 0xb0
703 874 m 0
 683 827 675 792 675 770 c 0
 675 764 675 757 676 754 c 0
 685 725 726 712 798 712 c 0
 804 712 811 712 818 712 c 0
 902 714 947 735 955 773 c 0
 955 774 956 777 956 779 c 0
 956 804 934 854 890 929 c 0
 856 986 825 1015 800 1015 c 0
 792 1015 780 1011 773 1003 c 0
 748 978 727 934 703 874 c 0
EndSplineSet
Validated: 1
EndChar

StartChar: B
Encoding: 66 66 13
Width: 1531
VWidth: 2237
GlyphClass: 1
Flags: W
HStem: 2 413<653.48 888.546> 726 337<667.609 816.836> 1313 379<581.5 825.445>
VStem: 87 541<451.603 711.375 1071.3 1277.16> 856 476<1104.67 1281.97> 927 556<455.418 663.269>
LayerCount: 2
Fore
SplineSet
822 2 m 0xf4
 745 1 665 0 578 0 c 0
 490 1 408 5 330 8 c 0
 252 12 202 19 175 32 c 0
 150 41 129 116 115 255 c 0
 101 394 90 550 87 721 c 0
 85 815 85 909 85 1000 c 0
 85 1075 85 1148 86 1220 c 0
 88 1381 99 1489 108 1542 c 0
 114 1575 152 1607 219 1633 c 0
 286 1659 364 1677 460 1686 c 0
 507 1690 556 1692 607 1692 c 0
 658 1692 710 1690 763 1686 c 0
 871 1677 966 1652 1054 1613 c 0
 1181 1557 1266 1464 1309 1333 c 0
 1325 1285 1332 1237 1332 1191 c 0xf8
 1332 1114 1310 1040 1264 969 c 1
 1267 965 l 1
 1363 909 1427 831 1458 738 c 0
 1474 687 1483 635 1483 581 c 0
 1483 536 1478 491 1468 444 c 0
 1441 331 1383 230 1294 149 c 0
 1205 68 1100 22 976 9 c 0
 950 7 897 4 822 2 c 0xf4
627 1156 m 0
 631 1104 647 1077 667 1071 c 0
 680 1068 692 1063 706 1063 c 0
 735 1063 763 1074 792 1094 c 0
 835 1123 856 1157 856 1200 c 0
 856 1229 845 1253 820 1277 c 0
 795 1301 757 1312 706 1313 c 0
 661 1313 634 1302 630 1278 c 0
 626 1260 623 1242 623 1218 c 0
 623 1199 625 1178 627 1156 c 0
812 427 m 0
 889 448 927 490 927 547 c 0xf4
 927 555 926 565 925 574 c 0
 916 627 879 671 823 701 c 0
 790 719 759 726 729 726 c 0
 707 726 686 720 666 712 c 0
 641 699 628 665 628 601 c 0
 628 597 628 588 628 585 c 0
 628 530 637 484 653 450 c 0
 663 425 688 415 727 415 c 0
 751 415 779 419 812 427 c 0
EndSplineSet
Validated: 1
EndChar

StartChar: C
Encoding: 67 67 14
Width: 1419
VWidth: 2237
GlyphClass: 1
Flags: W
HStem: 0 625<777.048 1234.25> 1104 577<902.96 1171>
VStem: 48 665<683.159 950.483>
LayerCount: 2
Fore
SplineSet
1087 1098 m 0
 1056 1096 1024 1090 994 1086 c 0
 917 1071 850 1034 786 978 c 0
 737 933 713 881 713 818 c 0
 713 802 714 784 717 766 c 0
 725 727 744 698 773 676 c 0
 817 642 874 625 945 625 c 0
 947 625 950 625 952 625 c 0
 1027 627 1093 634 1147 647 c 0
 1161 651 1173 653 1187 653 c 0
 1235 641 l 0
 1262 627 1289 603 1311 572 c 0
 1344 520 1367 450 1381 362 c 0
 1385 330 1387 303 1387 276 c 0
 1387 228 1381 184 1366 147 c 0
 1347 101 1320 73 1282 65 c 1
 1167 22 1037 0 899 0 c 0
 896 0 891 0 888 0 c 0
 745 1 616 27 503 79 c 0
 348 147 229 251 148 386 c 0
 80 497 48 621 48 759 c 0
 48 788 50 817 52 847 c 0
 81 1121 189 1332 378 1487 c 0
 536 1618 723 1681 944 1681 c 0
 988 1681 1033 1676 1079 1672 c 0
 1125 1668 1164 1644 1201 1600 c 0
 1238 1556 1265 1480 1289 1371 c 0
 1296 1338 1300 1306 1300 1277 c 0
 1300 1216 1281 1167 1247 1133 c 0
 1228 1114 1208 1105 1183 1104 c 0
 1152 1103 1118 1100 1087 1098 c 0
EndSplineSet
Validated: 1
EndChar

StartChar: D
Encoding: 68 68 15
Width: 1600
VWidth: 2237
GlyphClass: 1
Flags: W
HStem: 0 21G<509 656> 0 21G<509 656> 1666 20G<525.5 598.5> 1666 20G<525.5 598.5>
VStem: 71 565<671.782 1019.79> 968 569<711.039 944.429>
LayerCount: 2
Fore
SplineSet
1091 100 m 0xac
 924 32 748 0 564 0 c 0
 557 0 549 0 542 0 c 0
 476 1 412 6 352 14 c 0
 291 22 247 30 220 43 c 0
 177 61 145 147 120 303 c 0
 95 459 76 631 72 817 c 0
 71 861 71 901 71 943 c 0
 71 1081 80 1211 90 1335 c 0
 105 1496 131 1589 173 1614 c 0
 215 1640 276 1658 362 1671 c 0
 425 1679 492 1686 559 1686 c 0
 638 1686 719 1680 806 1667 c 0
 964 1643 1097 1590 1208 1502 c 0
 1352 1386 1451 1230 1504 1038 c 0
 1525 958 1537 878 1537 801 c 0
 1537 693 1518 590 1475 491 c 0
 1395 301 1263 169 1091 100 c 0xac
640 805 m 0
 646 727 663 681 688 667 c 0
 697 661 713 659 737 659 c 0
 743 659 752 659 759 659 c 0
 815 660 862 673 903 698 c 0
 944 723 965 759 968 806 c 0
 968 812 968 820 968 824 c 0
 968 876 947 920 904 958 c 0
 857 1000 805 1024 753 1028 c 0
 749 1028 742 1028 738 1028 c 0
 722 1028 706 1026 691 1024 c 0
 669 1020 653 1007 647 983 c 0
 640 958 636 926 636 887 c 0
 636 863 637 835 640 805 c 0
EndSplineSet
Validated: 1
EndChar

StartChar: E
Encoding: 69 69 16
Width: 1389
VWidth: 2237
GlyphClass: 1
Flags: W
HStem: 6 588<776 1267.43> 1134 546<758 1228.22>
VStem: 81 946<664.108 1043.37>
LayerCount: 2
Fore
SplineSet
1122 593 m 0
 1144 594 1166 594 1185 594 c 0
 1250 594 1290 586 1305 571 c 0
 1324 555 1339 485 1348 362 c 0
 1350 318 1353 277 1353 243 c 0
 1353 179 1347 133 1338 96 c 0
 1330 72 1273 53 1165 38 c 0
 1057 23 940 10 805 6 c 0
 715 3 633 1 547 1 c 0
 504 1 463 1 421 2 c 0
 298 4 220 16 182 32 c 0
 160 40 144 100 130 210 c 0
 116 319 101 447 93 593 c 0
 85 737 82 888 81 1039 c 0
 81 1077 81 1114 81 1148 c 0
 81 1250 84 1337 86 1409 c 0
 86 1461 92 1510 100 1554 c 0
 108 1597 118 1626 137 1636 c 0
 156 1646 219 1656 330 1664 c 0
 441 1672 561 1678 688 1680 c 0
 710 1680 730 1680 751 1680 c 0
 853 1680 951 1675 1041 1671 c 0
 1150 1665 1213 1655 1229 1639 c 0
 1248 1623 1260 1560 1262 1449 c 0
 1262 1433 1263 1418 1263 1403 c 0
 1263 1314 1256 1247 1242 1199 c 0
 1234 1173 1183 1156 1089 1152 c 0
 993 1146 883 1137 758 1134 c 1
 758 1126 758 1117 759 1104 c 0
 760 1091 760 1082 761 1074 c 1
 842 1073 910 1064 962 1054 c 0
 975 1052 985 1030 998 989 c 0
 1011 947 1019 907 1023 861 c 0
 1025 836 1027 813 1027 789 c 0
 1027 769 1025 748 1023 729 c 0
 1019 687 1004 666 984 664 c 0
 970 661 946 656 907 654 c 0
 868 652 822 648 776 647 c 1
 776 638 776 626 776 613 c 0
 776 600 776 590 776 582 c 1
 903 583 1021 589 1122 593 c 0
EndSplineSet
Validated: 1
EndChar

StartChar: F
Encoding: 70 70 17
Width: 1391
VWidth: 2237
GlyphClass: 1
Flags: W
HStem: 2 21G<411 566.5> 361 560<786 1124.93> 1030 647<786 1217.46>
LayerCount: 2
Fore
SplineSet
786 977 m 0
 786 953 786 935 786 921 c 1
 870 920 947 917 1016 913 c 0
 1085 909 1135 900 1161 894 c 0
 1186 886 1200 858 1208 806 c 0
 1211 776 1215 745 1215 712 c 0
 1215 688 1212 664 1210 639 c 0
 1206 579 1196 524 1181 473 c 0
 1166 421 1146 394 1127 391 c 0
 1083 381 1033 371 969 368 c 0
 917 365 862 361 808 361 c 0
 798 361 785 361 772 361 c 1
 759 180 745 78 721 49 c 1
 705 20 630 4 503 2 c 0
 490 2 479 2 466 2 c 0
 356 2 277 15 226 37 c 0
 207 45 188 110 164 242 c 0
 140 373 121 525 102 694 c 0
 83 862 71 1028 63 1194 c 0
 60 1273 57 1344 57 1401 c 0
 57 1465 60 1514 64 1555 c 0
 68 1598 131 1626 246 1645 c 0
 361 1663 491 1675 632 1677 c 0
 669 1678 705 1677 739 1677 c 0
 840 1677 938 1674 1031 1670 c 0
 1156 1662 1234 1655 1259 1649 c 0
 1291 1641 1313 1607 1322 1542 c 0
 1326 1505 1329 1466 1329 1425 c 0
 1329 1394 1326 1364 1324 1332 c 0
 1316 1258 1304 1189 1285 1129 c 0
 1266 1068 1244 1035 1220 1033 c 0
 1166 1029 1102 1027 1025 1027 c 0
 948 1027 867 1028 786 1030 c 1
 786 1016 786 1001 786 977 c 0
EndSplineSet
Validated: 33
EndChar

StartChar: G
Encoding: 71 71 18
Width: 1714
VWidth: 2237
GlyphClass: 1
Flags: W
HStem: 7 877<1194.28 1610.36>
VStem: 48 605<697.432 1004.54>
LayerCount: 2
Fore
SplineSet
847 1108 m 0
 776 1082 723 1041 692 986 c 0
 667 940 653 893 653 847 c 0
 653 837 654 825 655 815 c 0
 663 759 690 705 736 659 c 0
 782 613 850 587 938 584 c 0
 940 584 940 584 942 584 c 0
 1002 584 1035 603 1042 644 c 0
 1050 686 1059 727 1063 769 c 1
 1063 770 1062 771 1062 772 c 0
 1062 798 1091 821 1145 840 c 0
 1201 859 1264 873 1335 879 c 0
 1362 881 1388 884 1414 884 c 0
 1456 884 1494 879 1532 875 c 0
 1592 867 1625 847 1628 818 c 0
 1636 764 1644 697 1647 611 c 0
 1649 542 1650 473 1650 406 c 0
 1650 391 1650 376 1650 361 c 0
 1649 280 1646 208 1642 144 c 0
 1636 80 1624 47 1611 37 c 0
 1598 22 1542 10 1438 8 c 0
 1418 8 1399 7 1380 7 c 0
 1304 7 1248 14 1211 24 c 0
 1205 24 1200 32 1194 42 c 1
 1092 17 988 3 888 3 c 0
 861 3 832 5 805 6 c 0
 580 24 393 113 242 271 c 0
 110 406 48 569 48 759 c 0
 48 790 50 825 53 858 c 0
 82 1112 174 1307 330 1449 c 0
 486 1591 685 1668 922 1682 c 0
 936 1682 948 1683 962 1683 c 0
 1104 1683 1235 1651 1351 1586 c 0
 1478 1514 1547 1384 1549 1198 c 0
 1549 1196 1549 1195 1549 1193 c 0
 1549 1167 1534 1144 1497 1126 c 0
 1458 1107 1411 1091 1359 1081 c 0
 1306 1071 1252 1061 1200 1059 c 0
 1174 1057 1152 1055 1133 1055 c 0
 1114 1055 1099 1057 1089 1059 c 0
 1059 1062 1043 1075 1043 1094 c 0
 1043 1095 1043 1095 1043 1096 c 0
 1043 1097 1043 1098 1043 1099 c 0
 1043 1117 1036 1127 1022 1129 c 0
 1013 1129 1002 1130 994 1130 c 0
 940 1130 892 1123 847 1108 c 0
EndSplineSet
Validated: 1
EndChar

StartChar: H
Encoding: 72 72 19
Width: 1729
VWidth: 2237
GlyphClass: 1
Flags: W
HStem: 0 21G<373.5 428> 0 21G<373.5 428> 1663 20G<353.5 461.5 1218.5 1258.5>
VStem: 55 692<1091.3 1613.79> 947 692<1102.16 1609.89>
LayerCount: 2
Fore
SplineSet
489 2 m 0xb8
 463 1 439 0 417 0 c 0
 330 0 269 10 227 30 c 0
 203 40 179 115 157 254 c 0
 133 393 117 550 101 721 c 0
 85 892 70 1060 62 1221 c 0
 58 1322 55 1405 55 1462 c 0
 55 1494 56 1523 57 1542 c 0
 60 1587 98 1619 166 1643 c 0
 234 1667 313 1681 394 1683 c 0
 403 1683 417 1683 426 1683 c 0
 497 1683 561 1674 621 1659 c 0
 689 1641 729 1616 732 1579 c 0
 738 1515 744 1445 747 1359 c 0
 749 1273 756 1182 757 1088 c 1
 821 1090 882 1096 950 1097 c 1
 948 1165 947 1230 947 1294 c 0
 947 1318 948 1340 948 1362 c 0
 948 1446 951 1518 954 1579 c 0
 956 1617 992 1641 1060 1660 c 0
 1120 1675 1183 1686 1254 1686 c 0
 1263 1686 1276 1684 1285 1684 c 0
 1366 1682 1445 1670 1516 1646 c 0
 1585 1622 1624 1591 1630 1546 c 0
 1636 1503 1639 1429 1639 1320 c 0
 1639 1290 1638 1258 1638 1224 c 0
 1636 1063 1630 896 1622 725 c 0
 1613 553 1599 398 1583 259 c 0
 1567 120 1549 43 1527 33 c 0
 1484 13 1419 3 1329 3 c 0
 1309 3 1287 3 1265 4 c 0
 1142 8 1073 26 1058 55 c 0
 1045 70 1035 115 1022 189 c 0
 1009 263 1000 352 991 456 c 1
 949 448 908 440 866 436 c 0
 823 430 785 422 743 418 c 1
 739 322 729 244 721 178 c 0
 713 112 706 69 697 54 c 0
 683 25 612 6 489 2 c 0xb8
EndSplineSet
Validated: 1
EndChar

StartChar: I
Encoding: 73 73 20
Width: 922
VWidth: 2237
GlyphClass: 1
Flags: W
HStem: 0 21G<396.5 457> 0 21G<396.5 457> 1667 20G<470.5 515> 1667 20G<470.5 515>
VStem: 62 767<578.125 1614.92>
LayerCount: 2
Fore
SplineSet
517 1 m 0xa8
 492 0 468 0 446 0 c 0
 347 0 274 10 227 30 c 0
 202 40 179 115 155 254 c 0
 131 393 115 552 99 724 c 0
 83 895 70 1062 62 1223 c 0
 59 1300 57 1365 57 1417 c 0
 57 1473 59 1517 62 1546 c 0
 66 1590 107 1622 185 1646 c 0
 262 1670 345 1684 437 1686 c 0
 450 1686 464 1687 477 1687 c 0
 553 1687 623 1679 689 1664 c 0
 764 1646 806 1619 809 1581 c 0
 822 1477 827 1343 828 1178 c 0
 828 1151 829 1124 829 1097 c 0
 829 961 825 828 819 694 c 0
 813 535 805 394 791 271 c 0
 777 148 763 75 747 53 c 1
 732 23 654 5 517 1 c 0xa8
EndSplineSet
Validated: 1
EndChar

StartChar: J
Encoding: 74 74 21
Width: 1656
VWidth: 2237
GlyphClass: 1
Flags: W
HStem: 0 21G<707.5 860> 0 21G<707.5 860> 1657 20G<1205 1241.5>
VStem: 878 695<620.552 1460.44>
LayerCount: 2
Fore
SplineSet
1181 64 m 0xb0
 1056 22 927 0 793 0 c 0
 790 0 781 0 778 0 c 0
 637 2 502 34 368 90 c 0
 233 146 149 239 107 362 c 0
 83 434 67 513 63 594 c 0
 61 626 61 659 61 690 c 0
 61 737 64 783 68 829 c 1
 68 885 96 931 160 958 c 0
 221 985 289 1002 363 1004 c 0
 373 1004 387 1005 397 1005 c 0
 457 1005 511 999 562 983 c 0
 618 964 650 940 650 908 c 0
 650 907 650 906 650 905 c 0
 651 879 650 848 650 814 c 0
 650 780 651 741 650 698 c 0
 650 697 650 696 650 695 c 0
 650 614 689 571 764 570 c 0
 766 570 767 570 768 570 c 0
 814 570 843 587 856 619 c 0
 866 652 876 692 878 735 c 0
 882 804 885 873 885 941 c 0
 885 1033 880 1124 872 1213 c 0
 859 1328 855 1418 855 1475 c 0
 855 1495 855 1510 856 1524 c 0
 858 1569 892 1604 956 1629 c 0
 1020 1654 1089 1672 1166 1676 c 0
 1182 1677 1197 1677 1213 1677 c 0
 1270 1677 1328 1669 1380 1659 c 0
 1447 1644 1488 1618 1498 1581 c 0
 1512 1529 1526 1443 1542 1320 c 0
 1558 1197 1568 1068 1572 929 c 0
 1573 890 1573 852 1573 814 c 0
 1573 717 1570 623 1561 533 c 0
 1547 408 1518 316 1473 262 c 0
 1407 172 1312 107 1181 64 c 0xb0
EndSplineSet
Validated: 33
EndChar

StartChar: K
Encoding: 75 75 22
Width: 1584
VWidth: 2237
GlyphClass: 1
Flags: W
HStem: 0 22G<353 411.5 1263.5 1280.5> 0 22G<353 411.5 1263.5 1280.5> 1648 20G<485.5 527>
VStem: 71 729<1388 1602.15>
LayerCount: 2
Fore
SplineSet
1407 1089 m 0xb0
 1333 1001 1247 907 1150 807 c 1
 1306 728 1429 658 1522 594 c 0
 1538 584 1545 558 1545 525 c 0
 1545 509 1540 491 1537 469 c 0
 1524 402 1506 333 1476 262 c 0
 1446 191 1409 127 1367 74 c 0
 1330 27 1296 1 1265 1 c 0
 1262 1 1256 1 1253 2 c 0
 1215 10 1151 39 1057 84 c 0
 963 129 866 179 758 234 c 1
 744 136 729 75 715 56 c 0
 699 26 624 10 488 2 c 0
 456 0 425 0 398 0 c 0
 308 0 242 10 199 29 c 0
 174 39 154 115 135 254 c 0
 116 393 100 553 91 725 c 0
 81 897 74 1066 72 1227 c 0
 71 1275 71 1320 71 1359 c 0
 71 1449 72 1513 78 1552 c 0
 82 1585 125 1611 199 1630 c 0
 273 1649 349 1665 436 1667 c 0
 456 1668 476 1668 495 1668 c 0
 559 1668 620 1662 675 1653 c 0
 746 1640 783 1623 785 1596 c 0
 787 1566 794 1532 796 1499 c 0
 798 1467 799 1430 800 1388 c 1
 886 1459 963 1515 1034 1559 c 0
 1091 1596 1135 1615 1160 1615 c 0
 1164 1615 1170 1614 1173 1613 c 0
 1229 1587 1300 1530 1387 1441 c 0
 1471 1354 1513 1297 1513 1267 c 0
 1513 1266 1512 1266 1512 1265 c 0
 1512 1264 1513 1263 1513 1262 c 0
 1513 1232 1478 1175 1407 1089 c 0xb0
EndSplineSet
Validated: 1
EndChar

StartChar: L
Encoding: 76 76 23
Width: 1387
VWidth: 2237
GlyphClass: 1
Flags: W
HStem: 1 1679<188.722 729.257> 1 690<771.202 1244.39>
VStem: 81 678<720.451 1610.43>
LayerCount: 2
Fore
SplineSet
755 1421 m 0xa0
 756 1328 758 1230 759 1130 c 0
 760 1030 761 939 763 859 c 0
 764 778 769 729 771 720 c 0
 775 704 799 695 843 694 c 0
 859 693 878 691 896 691 c 0x60
 925 691 958 694 990 695 c 0
 1043 697 1095 702 1144 704 c 0
 1160 705 1174 705 1187 705 c 0
 1213 705 1232 702 1245 699 c 0
 1271 691 1294 652 1310 585 c 0
 1326 517 1339 446 1343 368 c 0
 1344 343 1344 320 1344 296 c 0
 1344 244 1340 194 1334 149 c 0
 1326 82 1311 47 1286 43 c 0
 1248 34 1175 24 1064 16 c 0
 952 8 835 2 712 1 c 0
 696 1 679 1 664 1 c 0
 560 1 459 6 366 13 c 0
 258 21 196 39 171 65 c 0
 146 91 128 178 114 321 c 0
 100 464 90 622 87 793 c 0
 84 926 81 1051 81 1173 c 0
 81 1211 81 1246 81 1284 c 0
 82 1440 86 1540 90 1591 c 0
 92 1621 127 1643 195 1657 c 0
 263 1671 338 1679 417 1680 c 0
 496 1680 572 1673 640 1660 c 0
 707 1647 743 1632 745 1612 c 0
 747 1579 753 1514 755 1421 c 0xa0
EndSplineSet
Validated: 1
EndChar

StartChar: M
Encoding: 77 77 24
Width: 2305
VWidth: 2237
GlyphClass: 1
Flags: HMW
LayerCount: 2
Fore
SplineSet
1357 1391 m 4
 1424 1488 1484 1563 1536 1612 c 4
 1560 1634 1601 1651 1667 1660 c 4
 1724 1668 1786 1675 1850 1675 c 4
 1857 1675 1865 1674 1872 1674 c 4
 1943 1673 2009 1667 2065 1658 c 4
 2121 1649 2157 1634 2165 1615 c 4
 2179 1584 2191 1489 2199 1333 c 4
 2207 1176 2210 1007 2210 824 c 4
 2210 641 2206 474 2198 318 c 4
 2190 162 2174 71 2155 42 c 4
 2140 24 2066 11 1931 8 c 4
 1886 7 1848 4 1811 4 c 4
 1739 4 1687 9 1650 16 c 4
 1628 19 1610 83 1591 205 c 4
 1572 327 1559 449 1553 573 c 5
 1539 558 1513 533 1475 492 c 4
 1436 451 1397 414 1354 372 c 4
 1311 330 1272 292 1231 261 c 4
 1189 230 1162 213 1143 213 c 4
 1124 213 1096 230 1057 260 c 4
 1018 290 979 324 937 366 c 4
 895 407 859 441 822 480 c 4
 785 519 761 546 747 560 c 5
 739 444 725 325 707 205 c 4
 689 85 672 22 652 16 c 4
 625 8 584 3 531 2 c 4
 500 1 469 1 438 1 c 4
 416 1 392 1 368 2 c 4
 314 4 266 10 223 18 c 4
 179 24 152 34 148 42 c 4
 129 69 113 163 104 321 c 4
 95 479 88 652 87 836 c 4
 87 867 87 895 87 925 c 4
 87 1073 89 1214 95 1346 c 4
 101 1502 114 1591 129 1616 c 4
 139 1634 176 1650 232 1659 c 4
 288 1668 354 1675 423 1676 c 4
 492 1676 561 1669 626 1660 c 4
 691 1651 732 1634 756 1612 c 4
 808 1563 869 1488 937 1391 c 4
 1005 1294 1075 1192 1146 1084 c 5
 1218 1192 1289 1294 1357 1391 c 4
EndSplineSet
Validated: 1
EndChar

StartChar: N
Encoding: 78 78 25
Width: 1805
VWidth: 2237
GlyphClass: 1
Flags: W
HStem: 2 21G<432 489.5 1381 1407.5> 1652 29G<406 437.5 1324.5 1439.5> 1661 20G<1324.5 1439.5>
VStem: 152 542<32.4065 390.188>
LayerCount: 2
Fore
SplineSet
1589 19 m 0xd0
 1545 11 1497 4 1445 3 c 0
 1430 2 1415 2 1400 2 c 0
 1362 2 1326 6 1292 8 c 0
 1243 11 1211 19 1193 27 c 0
 1168 37 1130 67 1084 113 c 0
 1038 159 989 212 940 266 c 0
 891 320 844 374 802 423 c 0
 760 470 737 503 727 518 c 1
 717 387 707 277 694 184 c 0
 681 91 668 40 649 32 c 0
 606 12 536 2 443 2 c 0
 421 2 397 2 371 3 c 0
 237 7 166 26 152 56 c 1
 136 78 121 153 111 277 c 0
 98 401 89 545 87 706 c 0
 85 786 85 868 85 949 c 0
 85 1030 85 1114 87 1198 c 0
 90 1365 103 1499 119 1603 c 0
 121 1623 148 1642 197 1652 c 0
 244 1662 301 1669 365 1671 c 0
 381 1672 398 1672 414 1672 c 0
 461 1672 508 1669 555 1665 c 0
 619 1657 667 1647 700 1633 c 0
 751 1609 815 1549 890 1452 c 0
 965 1354 1022 1279 1055 1228 c 1
 1053 1306 1049 1376 1047 1436 c 0
 1046 1466 1046 1493 1046 1515 c 0
 1046 1537 1046 1554 1047 1569 c 0
 1048 1606 1082 1630 1148 1649 c 0
 1214 1667 1285 1679 1364 1681 c 0
 1379 1681 1394 1681 1409 1681 c 0
 1470 1681 1529 1675 1582 1665 c 0
 1648 1651 1682 1629 1684 1603 c 0
 1694 1495 1704 1361 1706 1194 c 0
 1707 1110 1707 1025 1707 944 c 0
 1707 863 1707 781 1706 701 c 0
 1704 540 1698 396 1690 273 c 0
 1682 150 1676 75 1668 56 c 0
 1660 38 1633 27 1589 19 c 0xd0
EndSplineSet
Validated: 1
EndChar

StartChar: O
Encoding: 79 79 26
Width: 1821
VWidth: 2237
GlyphClass: 1
Flags: W
HStem: 0 628<758.781 1039.63> 1666 20G<773.5 882> 1666 20G<773.5 882>
LayerCount: 2
Fore
SplineSet
1408 163 m 0xc0
 1265 54 1104 0 924 0 c 0
 872 0 816 6 761 14 c 0
 525 55 342 164 206 350 c 0
 98 496 45 657 45 828 c 0
 45 874 48 922 55 969 c 0
 88 1179 193 1356 362 1498 c 0
 509 1623 678 1686 869 1686 c 0
 895 1686 921 1684 948 1682 c 0
 1219 1658 1429 1557 1578 1375 c 0
 1697 1233 1755 1067 1755 879 c 0
 1755 827 1749 774 1741 719 c 0
 1702 488 1592 304 1408 163 c 0xc0
1079 971 m 0
 1046 1016 996 1043 931 1053 c 0
 917 1055 904 1055 891 1055 c 0
 845 1055 805 1043 768 1014 c 0
 722 977 693 929 685 874 c 0
 683 860 681 849 681 836 c 0
 681 784 699 738 740 695 c 0
 783 650 835 628 895 628 c 0
 904 628 916 628 925 629 c 0
 976 633 1018 656 1051 689 c 0
 1084 722 1105 765 1113 811 c 0
 1115 826 1118 840 1118 854 c 0
 1118 898 1105 938 1079 971 c 0
EndSplineSet
Validated: 1
EndChar

StartChar: P
Encoding: 80 80 27
Width: 1506
VWidth: 2237
GlyphClass: 1
Flags: W
HStem: 1 21G<369 429> 1 21G<369 429> 1181 493<531.413 912.91>
VStem: 960 477<894.439 1134.63>
LayerCount: 2
Fore
SplineSet
1204 513 m 0xb0
 1096 419 972 370 828 370 c 0
 808 370 790 371 770 372 c 1
 764 286 754 215 746 159 c 0
 737 103 725 67 715 53 c 0
 700 24 627 6 492 2 c 0
 466 1 441 1 417 1 c 0
 321 1 252 10 207 30 c 0
 182 40 159 113 140 249 c 0
 121 384 107 536 94 705 c 0
 81 874 71 1038 69 1194 c 0
 68 1259 68 1314 68 1361 c 0
 68 1428 69 1476 72 1507 c 0
 76 1556 120 1596 199 1622 c 0
 278 1648 371 1664 473 1670 c 0
 512 1672 549 1674 588 1674 c 0
 654 1674 722 1671 789 1664 c 0
 897 1651 979 1635 1036 1610 c 0
 1303 1498 1437 1311 1437 1051 c 0
 1437 1008 1434 964 1427 917 c 0
 1402 756 1326 622 1204 513 c 0xb0
796 1179 m 0
 788 1180 780 1181 773 1181 c 0
 766 1181 760 1180 756 1179 c 0
 692 1169 660 1126 660 1052 c 0
 660 1045 661 1037 661 1030 c 0
 667 942 688 886 730 860 c 0
 740 853 756 847 775 847 c 0
 784 847 797 848 810 850 c 0
 863 858 903 880 930 919 c 0
 950 946 960 978 960 1011 c 0
 960 1021 959 1035 957 1048 c 0
 941 1127 886 1170 796 1179 c 0
EndSplineSet
Validated: 1
EndChar

StartChar: Q
Encoding: 81 81 28
Width: 2169
VWidth: 2237
GlyphClass: 1
Flags: W
HStem: 0 21G<639 730> 0 21G<639 730> 1059 629<610.928 833.47>
VStem: 47 499<695.564 994.986> 888 503<684.666 1004.3> 1440 100<81.9006 700.575> 1596 137<323.105 708.568> 1825 134<324.824 717.111> 1977 115<21.7562 91.6236 93.218 385.299 389.156 700.296> 2019 99<93.218 696.753>
LayerCount: 2
Fore
SplineSet
1341 531 m 1xbf
 1385 465 1408 415 1409 384 c 0
 1409 383 1409 382 1409 381 c 0
 1409 355 1379 297 1314 205 c 0
 1248 109 1198 47 1159 20 c 0
 1155 17 1145 14 1137 14 c 0
 1127 14 1114 18 1099 25 c 0
 1072 38 1039 54 1007 79 c 1
 943 40 877 14 799 4 c 0
 772 1 743 0 717 0 c 0
 561 0 424 64 300 189 c 0
 156 336 70 521 51 748 c 0
 49 780 47 812 47 844 c 0
 47 1027 93 1198 189 1357 c 0
 301 1544 448 1652 631 1681 c 0
 664 1685 696 1688 728 1688 c 0
 808 1688 885 1671 956 1638 c 0
 1055 1592 1141 1523 1209 1433 c 0
 1277 1343 1329 1234 1361 1110 c 0
 1381 1031 1391 949 1391 861 c 0
 1391 815 1389 767 1383 719 c 0
 1374 652 1359 587 1341 531 c 1xbf
740 1054 m 0
 730 1056 717 1059 708 1059 c 0
 665 1059 630 1038 597 995 c 0
 564 950 546 901 546 846 c 0
 546 838 546 827 547 818 c 0
 551 762 571 715 608 676 c 0
 639 645 673 628 715 628 c 0
 722 628 731 628 738 629 c 0
 824 642 869 703 883 813 c 0
 885 832 888 848 888 864 c 0
 888 968 837 1033 740 1054 c 0
1842 713 m 4
 1856 717 1868 720 1883 720 c 4
 1898 720 1913 716 1927 713 c 4
 1941 709 1949 701 1951 691 c 4
 1953 675 1957 650 1958 611 c 4
 1959 589 1959 564 1959 539 c 4
 1959 521 1958 505 1958 486 c 4
 1957 441 1953 397 1951 354 c 4
 1949 310 1943 277 1937 251 c 4
 1923 198 1905 154 1880 121 c 4
 1855 87 1825 67 1792 64 c 4
 1789 64 1784 63 1781 63 c 4
 1743 63 1710 82 1678 120 c 4
 1644 163 1617 220 1603 289 c 4
 1599 311 1598 346 1596 389 c 4
 1594 433 1593 475 1593 519 c 4
 1593 564 1595 603 1597 640 c 4
 1599 677 1604 700 1608 709 c 4
 1611 717 1623 723 1637 725 c 4
 1646 726 1657 727 1667 727 c 4
 1670 727 1675 727 1678 727 c 4
 1693 725 1707 723 1720 717 c 4
 1730 713 1737 705 1737 698 c 4
 1737 676 1736 645 1734 603 c 4
 1733 579 1733 555 1733 531 c 4
 1733 513 1733 495 1733 479 c 4
 1734 437 1736 404 1742 373 c 4
 1748 342 1758 325 1772 323 c 4
 1773 323 1778 322 1779 322 c 4
 1793 322 1802 335 1808 362 c 4
 1814 393 1819 429 1821 472 c 4
 1822 503 1825 535 1825 566 c 4
 1825 576 1825 592 1825 602 c 4
 1825 631 1824 653 1824 672 c 4
 1824 681 1825 690 1825 696 c 4
 1825 704 1829 709 1842 713 c 4
1466 147 m 4
 1448 212 1441 287 1440 371 c 4
 1440 377 1440 383 1440 389 c 4
 1440 466 1445 537 1458 602 c 4
 1462 628 1469 656 1476 682 c 4
 1483 708 1494 730 1504 749 c 4
 1514 769 1529 779 1544 779 c 4
 1546 779 1549 777 1551 777 c 4
 1565 774 1573 760 1580 738 c 4
 1583 725 1586 714 1586 701 c 4
 1586 692 1584 679 1582 670 c 4
 1553 559 1540 470 1540 403 c 4
 1540 389 1542 375 1543 362 c 4
 1550 293 1558 234 1571 191 c 4
 1578 162 1585 136 1587 110 c 4
 1587 107 1587 101 1587 98 c 4
 1587 77 1581 59 1568 44 c 4
 1560 36 1552 30 1544 30 c 4
 1536 30 1522 36 1514 44 c 4
 1495 65 1480 98 1466 147 c 4
1990 27 m 4
 1984 37 1979 51 1977 66 c 4x3f80
 1976 74 1976 84 1976 92 c 4
 1976 118 1979 143 1986 172 c 4
 1999 215 2010 276 2017 345 c 4
 2018 359 2019 371 2019 386 c 4x3f40
 2019 453 2006 541 1977 651 c 4x3f80
 1973 670 1970 686 1970 701 c 4
 1970 705 1971 709 1971 713 c 4
 1975 744 1986 759 2004 759 c 4
 2006 759 2011 759 2014 758 c 4
 2036 752 2052 736 2062 712 c 4
 2070 694 2079 674 2085 652 c 4
 2091 630 2097 606 2101 582 c 4
 2111 517 2118 448 2118 371 c 4
 2118 365 2118 357 2118 351 c 4x3f40
 2117 267 2110 196 2092 131 c 4x3f80
 2072 57 2048 16 2019 9 c 4x3f40
 2018 9 2017 8 2016 8 c 4
 2008 8 1997 14 1990 27 c 4
EndSplineSet
Validated: 1
EndChar

StartChar: R
Encoding: 82 82 29
Width: 1552
VWidth: 2237
GlyphClass: 1
Flags: W
HStem: 1 21G<306 428> 1 21G<306 428> 1211 500<425 818.726>
VStem: 73 512<926.869 1202.65> 873 508<968.922 1174.08>
LayerCount: 2
Fore
SplineSet
1442 522 m 0xb8
 1497 466 1527 421 1528 391 c 0
 1528 371 1515 338 1490 296 c 0
 1465 254 1440 213 1409 171 c 0
 1378 129 1347 95 1317 64 c 0
 1287 33 1266 15 1256 15 c 0
 1250 14 1243 14 1236 14 c 0
 1190 14 1130 40 1052 89 c 0
 962 146 886 186 831 205 c 0
 812 211 796 214 783 214 c 0
 759 214 744 204 742 184 c 1
 742 180 742 173 742 169 c 0
 742 124 738 90 730 65 c 0
 721 38 683 20 622 14 c 0
 553 6 473 2 383 1 c 0
 368 1 353 1 339 1 c 0
 273 1 232 4 212 8 c 0
 196 10 180 21 171 37 c 0
 157 56 140 146 124 307 c 0
 108 468 92 641 83 830 c 0
 76 989 73 1136 73 1273 c 0
 73 1299 73 1326 73 1351 c 0
 74 1508 83 1589 105 1602 c 0
 184 1647 290 1679 425 1698 c 0
 481 1706 540 1711 596 1711 c 0
 672 1711 748 1704 824 1688 c 0
 958 1662 1075 1608 1179 1524 c 0
 1281 1443 1346 1323 1370 1164 c 0
 1376 1119 1381 1078 1381 1037 c 0
 1381 889 1335 777 1246 702 c 1
 1320 638 1387 578 1442 522 c 0xb8
825 971 m 0
 855 1008 873 1042 873 1081 c 0
 872 1120 853 1151 820 1178 c 0
 793 1199 754 1211 705 1211 c 0
 690 1211 675 1209 657 1207 c 0
 609 1203 585 1165 585 1098 c 0
 585 1083 586 1067 588 1048 c 0
 598 955 633 909 686 909 c 0
 689 909 693 909 696 909 c 0
 751 913 795 934 825 971 c 0
EndSplineSet
Validated: 1
EndChar

StartChar: S
Encoding: 83 83 30
Width: 1422
VWidth: 2237
GlyphClass: 1
Flags: W
HStem: 15 491<621.122 801.933> 1254 475<601.553 781.427>
LayerCount: 2
Fore
SplineSet
806 1165 m 0
 791 1175 782 1185 782 1199 c 0
 781 1213 774 1226 760 1236 c 0
 745 1249 727 1254 708 1254 c 0
 683 1254 654 1243 622 1221 c 0
 602 1207 592 1193 592 1183 c 0
 592 1162 625 1144 691 1130 c 0
 701 1128 711 1128 725 1126 c 0
 739 1124 753 1120 767 1118 c 0
 934 1089 1067 1038 1164 967 c 0
 1284 879 1353 767 1372 626 c 0
 1374 605 1375 583 1375 562 c 0
 1375 447 1332 339 1252 245 c 0
 1139 113 985 38 792 19 c 0
 761 17 730 15 700 15 c 0
 544 15 408 55 289 141 c 0
 167 227 88 336 58 463 c 0
 56 471 56 482 56 490 c 0
 56 538 88 579 152 606 c 0
 184 621 220 632 262 638 c 0
 303 644 337 650 374 650 c 0
 434 650 488 642 535 628 c 0
 582 614 611 593 617 567 c 0
 618 564 621 557 623 553 c 0
 631 535 645 521 669 513 c 0
 679 509 693 506 707 506 c 0
 726 506 744 510 765 517 c 0
 790 526 803 542 803 561 c 0
 803 569 798 580 794 589 c 0
 786 605 764 619 727 628 c 0
 641 653 562 671 476 685 c 0
 390 698 308 734 233 789 c 0
 179 830 137 880 107 948 c 0
 83 999 73 1066 73 1143 c 0
 73 1168 73 1195 75 1222 c 0
 89 1376 159 1500 293 1598 c 0
 371 1654 459 1695 558 1714 c 0
 607 1723 656 1729 704 1729 c 0
 752 1729 802 1723 848 1714 c 0
 941 1695 1023 1654 1098 1598 c 0
 1172 1542 1224 1461 1253 1365 c 0
 1255 1356 1259 1347 1259 1339 c 0
 1259 1314 1249 1290 1225 1271 c 0
 1194 1244 1148 1223 1102 1205 c 0
 1056 1187 1007 1174 958 1166 c 0
 909 1158 873 1153 848 1152 c 0
 847 1152 842 1152 841 1152 c 0
 827 1152 816 1158 806 1165 c 0
EndSplineSet
Validated: 1
EndChar

StartChar: T
Encoding: 84 84 31
Width: 1772
VWidth: 2237
GlyphClass: 1
Flags: W
HStem: 0 21G<862.5 891> 0 21G<862.5 891> 973 698<105.401 513.497 1247 1629.58>
LayerCount: 2
Fore
SplineSet
1092 18 m 0xa0
 1047 10 997 3 942 1 c 0
 922 0 901 0 881 0 c 0
 844 0 811 1 774 3 c 0
 719 6 677 17 648 30 c 0
 618 44 591 149 567 350 c 0
 542 553 524 757 511 963 c 1
 402 965 313 971 235 979 c 0
 157 988 113 1001 105 1019 c 0
 91 1046 80 1092 71 1153 c 0
 62 1217 54 1278 52 1343 c 0
 51 1372 51 1399 51 1425 c 0
 51 1457 51 1489 53 1518 c 0
 55 1570 67 1601 81 1609 c 0
 101 1625 173 1639 295 1648 c 0
 417 1657 557 1667 715 1669 c 0
 816 1671 921 1672 1024 1672 c 0
 1080 1672 1142 1672 1198 1671 c 0
 1361 1670 1497 1666 1601 1660 c 0
 1643 1658 1669 1621 1684 1553 c 0
 1694 1500 1702 1442 1702 1379 c 0
 1702 1361 1702 1346 1701 1328 c 0
 1698 1247 1684 1169 1664 1101 c 0
 1644 1033 1618 998 1588 996 c 0
 1561 993 1516 987 1455 984 c 0
 1394 982 1324 975 1247 973 c 1
 1245 768 1239 570 1225 379 c 0
 1211 189 1195 79 1175 52 c 0
 1167 38 1137 26 1092 18 c 0xa0
EndSplineSet
Validated: 1
EndChar

StartChar: U
Encoding: 85 85 32
Width: 1848
VWidth: 2237
GlyphClass: 1
Flags: W
HStem: 1 649<799.232 1028.79> 1647 20G<364.5 399>
VStem: 61 648<768.814 1585.68> 1136 627<824.587 1573.15>
LayerCount: 2
Fore
SplineSet
1223 1630 m 0
 1279 1643 1347 1648 1418 1648 c 0
 1425 1648 1432 1648 1439 1648 c 0
 1503 1648 1561 1643 1616 1633 c 0
 1680 1620 1716 1601 1726 1575 c 0
 1741 1536 1752 1471 1758 1375 c 0
 1761 1311 1763 1243 1763 1172 c 0
 1763 1135 1762 1100 1761 1062 c 0
 1758 950 1748 841 1733 732 c 0
 1717 623 1694 540 1665 476 c 0
 1604 341 1514 234 1398 148 c 0
 1282 62 1146 16 995 3 c 0
 974 2 951 1 930 1 c 0
 763 1 607 50 461 144 c 0
 295 252 181 391 117 570 c 0
 97 626 80 709 72 818 c 0
 64 912 61 1009 61 1106 c 0
 61 1120 61 1134 61 1148 c 0
 62 1259 67 1358 80 1448 c 0
 93 1538 109 1597 134 1622 c 0
 154 1641 197 1654 262 1660 c 0
 303 1663 343 1667 386 1667 c 0
 412 1667 438 1666 465 1665 c 0
 533 1663 596 1653 650 1639 c 0
 703 1626 730 1610 730 1591 c 0
 729 1535 726 1454 718 1353 c 0
 714 1288 709 1221 709 1155 c 0
 709 1117 712 1083 713 1046 c 0
 715 946 729 855 756 777 c 0
 782 699 832 659 900 651 c 0
 907 650 913 650 919 650 c 0
 983 650 1030 683 1060 752 c 0
 1091 830 1114 919 1123 1027 c 0
 1130 1113 1136 1195 1136 1281 c 0
 1136 1303 1135 1325 1135 1346 c 0
 1134 1399 1134 1445 1134 1486 c 0
 1134 1527 1134 1560 1135 1586 c 0
 1136 1605 1167 1620 1223 1630 c 0
EndSplineSet
Validated: 1
EndChar

StartChar: V
Encoding: 86 86 33
Width: 1956
VWidth: 2237
GlyphClass: 1
Flags: W
HStem: 0 21G<960.5 1013.5> 0 21G<960.5 1013.5> 1651 20G<548.5 577 1355 1383.5>
LayerCount: 2
Fore
SplineSet
1141 1339 m 0xa0
 1197 1462 1251 1563 1296 1638 c 0
 1310 1662 1334 1671 1376 1671 c 0
 1391 1671 1409 1670 1428 1668 c 0
 1499 1655 1570 1632 1645 1599 c 0
 1719 1566 1787 1522 1842 1475 c 0
 1887 1436 1909 1398 1909 1364 c 0
 1909 1357 1905 1348 1903 1341 c 0
 1888 1292 1851 1198 1790 1059 c 0
 1729 920 1663 776 1589 627 c 0
 1515 478 1444 343 1376 221 c 0
 1308 99 1260 33 1230 19 c 0
 1216 13 1185 5 1139 3 c 0
 1093 1 1040 0 987 0 c 0
 934 0 885 2 839 4 c 0
 793 6 762 15 748 19 c 0
 718 33 668 96 600 210 c 0
 532 324 457 459 382 603 c 0
 305 747 236 891 171 1032 c 0
 105 1173 61 1276 39 1341 c 0
 37 1349 35 1358 35 1366 c 0
 35 1399 56 1436 99 1475 c 0
 152 1522 215 1566 289 1599 c 0
 363 1632 435 1655 506 1668 c 0
 525 1670 541 1671 556 1671 c 0
 598 1671 626 1662 640 1638 c 0
 700 1537 759 1425 814 1309 c 0
 869 1193 924 1076 977 965 c 1
 1030 1088 1085 1216 1141 1339 c 0xa0
EndSplineSet
Validated: 1
EndChar

StartChar: W
Encoding: 87 87 34
Width: 2145
VWidth: 2237
GlyphClass: 1
Flags: W
HStem: 1 21G<1562 1664> 1 21G<1562 1664> 1661 20G<433.5 509 1602 1802> 1661 20G<433.5 509 1602 1802>
LayerCount: 2
Fore
SplineSet
1823 18 m 0xa0
 1767 9 1700 2 1628 1 c 0
 1615 1 1605 1 1592 1 c 0
 1532 1 1475 3 1421 9 c 0
 1354 15 1313 28 1294 46 c 0
 1264 70 1228 110 1183 166 c 0
 1138 221 1106 266 1081 298 c 1
 1052 257 1019 213 982 166 c 0
 945 117 913 76 876 46 c 0
 857 30 813 19 748 13 c 0
 697 10 644 4 590 4 c 0
 575 4 560 4 544 4 c 0
 472 5 402 12 346 20 c 0
 289 29 254 41 250 56 c 0
 206 157 172 294 143 460 c 0
 114 625 92 786 78 947 c 0
 63 1108 55 1253 55 1376 c 0
 55 1389 55 1401 55 1411 c 0
 55 1512 62 1575 72 1597 c 0
 76 1611 103 1625 149 1639 c 0
 195 1653 247 1662 304 1670 c 0
 355 1676 408 1681 459 1681 c 0
 466 1681 474 1681 481 1681 c 0
 537 1681 584 1674 614 1660 c 0
 643 1646 666 1560 691 1401 c 0
 715 1240 740 1070 766 888 c 1
 786 910 839 964 918 1053 c 0
 997 1141 1053 1188 1082 1190 c 0
 1083 1190 1082 1190 1083 1190 c 0
 1108 1190 1156 1144 1228 1053 c 0
 1300 961 1347 905 1363 886 c 1
 1382 1068 1401 1239 1425 1400 c 0
 1449 1561 1471 1646 1500 1660 c 0
 1529 1674 1574 1681 1630 1681 c 0
 1637 1681 1646 1681 1653 1681 c 0
 1802 1670 l 0
 1858 1662 1912 1653 1958 1639 c 0
 2004 1625 2032 1611 2036 1597 c 0
 2050 1572 2057 1500 2059 1377 c 0
 2059 1352 2060 1325 2060 1298 c 0
 2060 1195 2055 1075 2048 948 c 0
 2039 787 2022 628 2002 462 c 0
 1980 296 1952 160 1920 56 c 0
 1916 40 1879 27 1823 18 c 0xa0
EndSplineSet
Validated: 1
EndChar

StartChar: X
Encoding: 88 88 35
Width: 1773
VWidth: 2237
GlyphClass: 1
Flags: W
HStem: -1 21G<476.5 501.5> 1655 20G<1340.5 1349> 1672 20G<496 518.5 1340.5 1349>
LayerCount: 2
Fore
SplineSet
1416 1639 m 0xc0
 1455 1612 1495 1576 1537 1534 c 0
 1579 1492 1617 1453 1654 1408 c 0
 1691 1363 1714 1325 1724 1295 c 0
 1725 1293 1725 1289 1725 1287 c 0
 1725 1262 1694 1210 1634 1134 c 0
 1567 1048 1483 953 1383 842 c 1
 1475 740 1550 646 1611 567 c 0
 1672 488 1705 439 1707 415 c 0
 1707 413 1711 408 1711 406 c 0
 1711 390 1699 364 1678 331 c 0
 1653 289 1621 249 1582 205 c 0
 1543 161 1502 122 1459 84 c 0
 1416 46 1380 20 1350 10 c 0
 1348 9 1345 9 1343 9 c 0
 1318 9 1265 40 1187 100 c 0
 1099 167 1005 250 906 350 c 1
 822 269 750 198 685 138 c 0
 619 78 573 36 544 16 c 0
 528 6 512 -1 491 -1 c 0
 462 -1 429 10 392 30 c 0
 327 67 268 118 212 178 c 0
 156 238 110 297 79 362 c 0
 60 400 50 433 50 459 c 0
 50 478 55 490 64 503 c 0
 102 547 149 599 205 659 c 0
 261 719 328 784 396 852 c 1
 237 1015 130 1127 83 1191 c 0
 69 1207 64 1228 64 1250 c 0
 64 1277 74 1310 93 1344 c 0
 126 1409 177 1469 234 1525 c 0
 290 1581 350 1630 414 1663 c 0
 452 1683 483 1692 509 1692 c 0xa0
 528 1692 542 1686 555 1677 c 0
 601 1638 655 1589 716 1533 c 0
 777 1477 841 1412 909 1344 c 1
 1010 1437 1102 1513 1181 1577 c 0
 1260 1641 1311 1672 1335 1674 c 0
 1336 1674 1340 1675 1341 1675 c 0
 1357 1675 1382 1664 1416 1639 c 0xc0
EndSplineSet
Validated: 1
EndChar

StartChar: Y
Encoding: 89 89 36
Width: 1816
VWidth: 2237
GlyphClass: 1
Flags: W
HStem: 0 21G<836.5 865.5> 0 21G<836.5 865.5> 1638 20G<1373 1408.5>
LayerCount: 2
Fore
SplineSet
1619 1019 m 0xa0
 1526 906 1413 786 1286 662 c 1
 1278 508 1268 372 1249 250 c 0
 1230 128 1209 57 1193 37 c 0
 1185 28 1155 17 1104 13 c 0
 1052 9 998 2 938 1 c 0
 908 0 880 0 851 0 c 0
 822 0 796 0 770 1 c 0
 717 2 682 8 672 14 c 0
 647 28 624 94 599 216 c 0
 573 338 552 475 538 626 c 1
 403 752 286 873 189 989 c 0
 91 1105 39 1182 36 1219 c 0
 35 1222 35 1225 35 1228 c 0
 35 1249 47 1278 72 1320 c 0
 102 1367 137 1419 180 1468 c 0
 223 1517 267 1558 310 1597 c 0
 353 1636 381 1655 400 1656 c 0
 401 1656 405 1656 406 1656 c 0
 449 1656 513 1618 603 1547 c 0
 695 1472 794 1384 898 1284 c 1
 1006 1384 1102 1473 1195 1548 c 0
 1284 1620 1351 1658 1395 1658 c 0
 1396 1658 1398 1658 1399 1658 c 0
 1418 1657 1447 1638 1490 1601 c 0
 1533 1564 1576 1523 1619 1477 c 0
 1662 1431 1699 1385 1729 1339 c 0
 1754 1300 1766 1271 1766 1251 c 0
 1766 1248 1766 1243 1765 1240 c 0
 1761 1207 1711 1131 1619 1019 c 0xa0
EndSplineSet
Validated: 1
EndChar

StartChar: Z
Encoding: 90 90 37
Width: 1602
VWidth: 2237
GlyphClass: 1
Flags: W
HStem: 2 651<1066 1484.18> 1051 631<185.833 644>
VStem: 57 1483<56.9876 524.683>
LayerCount: 2
Fore
SplineSet
126 1193 m 0
 118 1237 113 1286 111 1340 c 0
 110 1360 110 1379 110 1399 c 0
 110 1433 111 1468 113 1502 c 0
 116 1555 127 1596 140 1622 c 0
 149 1646 213 1660 329 1668 c 0
 445 1676 577 1682 721 1682 c 0
 865 1682 1005 1675 1140 1671 c 0
 1275 1665 1366 1658 1412 1652 c 0
 1445 1648 1469 1618 1488 1571 c 0
 1507 1522 1519 1470 1522 1406 c 0
 1523 1387 1523 1370 1523 1352 c 0
 1523 1308 1520 1265 1514 1222 c 0
 1505 1162 1489 1115 1467 1088 c 2
 1465 1087 l 1
 1419 1030 1358 962 1289 887 c 0
 1220 810 1145 731 1066 651 c 1
 1127 653 1183 653 1234 653 c 0
 1253 653 1270 653 1288 653 c 0
 1353 652 1400 645 1427 642 c 0
 1466 636 1493 603 1512 538 c 0
 1531 473 1540 401 1540 326 c 0
 1540 251 1530 184 1514 120 c 0
 1496 56 1471 22 1440 20 c 0
 1350 12 1231 4 1087 2 c 0
 1015 1 943 1 872 1 c 0
 801 1 731 1 662 2 c 0
 521 3 398 10 289 19 c 0
 180 27 117 40 98 56 c 0
 73 71 59 140 57 262 c 0
 57 276 57 288 57 301 c 0
 57 402 66 478 87 527 c 0
 102 570 167 642 280 742 c 0
 392 842 517 947 644 1051 c 1
 521 1053 413 1062 321 1075 c 0
 228 1088 174 1102 156 1117 c 0
 143 1125 134 1149 126 1193 c 0
EndSplineSet
Validated: 1
EndChar

StartChar: a
Encoding: 97 97 38
Width: 1685
VWidth: 2237
GlyphClass: 1
Flags: W
HStem: 1 21G<1170 1190.5> 1 21G<1170 1190.5> 337 375<676.471 951.403> 1647 20G<842 880>
LayerCount: 2
Fore
SplineSet
44 92 m 0xb0
 44 95 44 98 44 101 c 0
 44 172 56 277 81 413 c 0
 107 555 139 699 180 853 c 0
 221 1007 260 1150 305 1285 c 0
 349 1420 388 1514 420 1568 c 0
 434 1590 470 1608 535 1626 c 0
 599 1644 669 1654 747 1660 c 0
 786 1663 823 1667 861 1667 c 0
 899 1667 933 1663 970 1660 c 0
 1041 1654 1090 1638 1119 1612 c 0
 1161 1571 1210 1488 1265 1353 c 0
 1320 1218 1374 1074 1427 917 c 0
 1480 760 1528 608 1571 464 c 0
 1614 320 1640 218 1654 158 c 0
 1657 142 1661 129 1661 116 c 0
 1661 95 1654 78 1645 68 c 0
 1630 50 1605 37 1566 31 c 0
 1501 21 1424 12 1328 8 c 0
 1259 5 1206 1 1175 1 c 0
 1165 1 1154 1 1148 2 c 0
 1139 4 1132 11 1124 14 c 0
 1098 30 1073 74 1048 151 c 0
 1023 228 1000 280 976 309 c 0
 962 327 945 334 921 336 c 2
 743 337 l 2
 688 336 648 319 632 282 c 0
 610 236 585 187 558 131 c 0
 531 76 510 40 496 26 c 0
 490 18 481 11 467 9 c 0
 448 6 415 3 367 3 c 0
 336 3 298 3 255 4 c 0
 143 6 80 20 65 39 c 0
 51 54 45 72 44 92 c 0xb0
703 874 m 0
 683 827 675 792 675 770 c 0
 675 764 675 757 676 754 c 0
 685 725 726 712 798 712 c 0
 804 712 811 712 818 712 c 0
 902 714 947 735 955 773 c 0
 955 774 956 777 956 779 c 0
 956 804 934 854 890 929 c 0
 856 986 825 1015 800 1015 c 0
 792 1015 780 1011 773 1003 c 0
 748 978 727 934 703 874 c 0
EndSplineSet
Validated: 1
EndChar

StartChar: b
Encoding: 98 98 39
Width: 1531
VWidth: 2237
GlyphClass: 1
Flags: W
HStem: 2 413<653.48 888.546> 726 337<667.609 816.836> 1313 379<581.5 825.445>
VStem: 87 541<451.603 711.375 1071.3 1277.16> 856 476<1104.67 1281.97> 927 556<455.418 663.269>
LayerCount: 2
Fore
SplineSet
822 2 m 0xf4
 745 1 665 0 578 0 c 0
 490 1 408 5 330 8 c 0
 252 12 202 19 175 32 c 0
 150 41 129 116 115 255 c 0
 101 394 90 550 87 721 c 0
 85 815 85 909 85 1000 c 0
 85 1075 85 1148 86 1220 c 0
 88 1381 99 1489 108 1542 c 0
 114 1575 152 1607 219 1633 c 0
 286 1659 364 1677 460 1686 c 0
 507 1690 556 1692 607 1692 c 0
 658 1692 710 1690 763 1686 c 0
 871 1677 966 1652 1054 1613 c 0
 1181 1557 1266 1464 1309 1333 c 0
 1325 1285 1332 1237 1332 1191 c 0xf8
 1332 1114 1310 1040 1264 969 c 1
 1267 965 l 1
 1363 909 1427 831 1458 738 c 0
 1474 687 1483 635 1483 581 c 0
 1483 536 1478 491 1468 444 c 0
 1441 331 1383 230 1294 149 c 0
 1205 68 1100 22 976 9 c 0
 950 7 897 4 822 2 c 0xf4
627 1156 m 0
 631 1104 647 1077 667 1071 c 0
 680 1068 692 1063 706 1063 c 0
 735 1063 763 1074 792 1094 c 0
 835 1123 856 1157 856 1200 c 0
 856 1229 845 1253 820 1277 c 0
 795 1301 757 1312 706 1313 c 0
 661 1313 634 1302 630 1278 c 0
 626 1260 623 1242 623 1218 c 0
 623 1199 625 1178 627 1156 c 0
812 427 m 0
 889 448 927 490 927 547 c 0xf4
 927 555 926 565 925 574 c 0
 916 627 879 671 823 701 c 0
 790 719 759 726 729 726 c 0
 707 726 686 720 666 712 c 0
 641 699 628 665 628 601 c 0
 628 597 628 588 628 585 c 0
 628 530 637 484 653 450 c 0
 663 425 688 415 727 415 c 0
 751 415 779 419 812 427 c 0
EndSplineSet
Validated: 1
EndChar

StartChar: c
Encoding: 99 99 40
Width: 1419
VWidth: 2237
GlyphClass: 1
Flags: W
HStem: 0 625<777.048 1234.25> 1104 577<902.96 1171>
VStem: 48 665<683.159 950.483>
LayerCount: 2
Fore
SplineSet
1087 1098 m 0
 1056 1096 1024 1090 994 1086 c 0
 917 1071 850 1034 786 978 c 0
 737 933 713 881 713 818 c 0
 713 802 714 784 717 766 c 0
 725 727 744 698 773 676 c 0
 817 642 874 625 945 625 c 0
 947 625 950 625 952 625 c 0
 1027 627 1093 634 1147 647 c 0
 1161 651 1173 653 1187 653 c 0
 1235 641 l 0
 1262 627 1289 603 1311 572 c 0
 1344 520 1367 450 1381 362 c 0
 1385 330 1387 303 1387 276 c 0
 1387 228 1381 184 1366 147 c 0
 1347 101 1320 73 1282 65 c 1
 1167 22 1037 0 899 0 c 0
 896 0 891 0 888 0 c 0
 745 1 616 27 503 79 c 0
 348 147 229 251 148 386 c 0
 80 497 48 621 48 759 c 0
 48 788 50 817 52 847 c 0
 81 1121 189 1332 378 1487 c 0
 536 1618 723 1681 944 1681 c 0
 988 1681 1033 1676 1079 1672 c 0
 1125 1668 1164 1644 1201 1600 c 0
 1238 1556 1265 1480 1289 1371 c 0
 1296 1338 1300 1306 1300 1277 c 0
 1300 1216 1281 1167 1247 1133 c 0
 1228 1114 1208 1105 1183 1104 c 0
 1152 1103 1118 1100 1087 1098 c 0
EndSplineSet
Validated: 1
EndChar

StartChar: d
Encoding: 100 100 41
Width: 1600
VWidth: 2237
GlyphClass: 1
Flags: W
HStem: 0 21G<509 656> 0 21G<509 656> 1666 20G<525.5 598.5> 1666 20G<525.5 598.5>
VStem: 71 565<671.782 1019.79> 968 569<711.039 944.429>
LayerCount: 2
Fore
SplineSet
1091 100 m 0xac
 924 32 748 0 564 0 c 0
 557 0 549 0 542 0 c 0
 476 1 412 6 352 14 c 0
 291 22 247 30 220 43 c 0
 177 61 145 147 120 303 c 0
 95 459 76 631 72 817 c 0
 71 861 71 901 71 943 c 0
 71 1081 80 1211 90 1335 c 0
 105 1496 131 1589 173 1614 c 0
 215 1640 276 1658 362 1671 c 0
 425 1679 492 1686 559 1686 c 0
 638 1686 719 1680 806 1667 c 0
 964 1643 1097 1590 1208 1502 c 0
 1352 1386 1451 1230 1504 1038 c 0
 1525 958 1537 878 1537 801 c 0
 1537 693 1518 590 1475 491 c 0
 1395 301 1263 169 1091 100 c 0xac
640 805 m 0
 646 727 663 681 688 667 c 0
 697 661 713 659 737 659 c 0
 743 659 752 659 759 659 c 0
 815 660 862 673 903 698 c 0
 944 723 965 759 968 806 c 0
 968 812 968 820 968 824 c 0
 968 876 947 920 904 958 c 0
 857 1000 805 1024 753 1028 c 0
 749 1028 742 1028 738 1028 c 0
 722 1028 706 1026 691 1024 c 0
 669 1020 653 1007 647 983 c 0
 640 958 636 926 636 887 c 0
 636 863 637 835 640 805 c 0
EndSplineSet
Validated: 1
EndChar

StartChar: e
Encoding: 101 101 42
Width: 1389
VWidth: 2237
GlyphClass: 1
Flags: W
HStem: 6 588<776 1267.43> 1134 546<758 1228.22>
VStem: 81 946<664.108 1043.37>
LayerCount: 2
Fore
SplineSet
1122 593 m 0
 1144 594 1166 594 1185 594 c 0
 1250 594 1290 586 1305 571 c 0
 1324 555 1339 485 1348 362 c 0
 1350 318 1353 277 1353 243 c 0
 1353 179 1347 133 1338 96 c 0
 1330 72 1273 53 1165 38 c 0
 1057 23 940 10 805 6 c 0
 715 3 633 1 547 1 c 0
 504 1 463 1 421 2 c 0
 298 4 220 16 182 32 c 0
 160 40 144 100 130 210 c 0
 116 319 101 447 93 593 c 0
 85 737 82 888 81 1039 c 0
 81 1077 81 1114 81 1148 c 0
 81 1250 84 1337 86 1409 c 0
 86 1461 92 1510 100 1554 c 0
 108 1597 118 1626 137 1636 c 0
 156 1646 219 1656 330 1664 c 0
 441 1672 561 1678 688 1680 c 0
 710 1680 730 1680 751 1680 c 0
 853 1680 951 1675 1041 1671 c 0
 1150 1665 1213 1655 1229 1639 c 0
 1248 1623 1260 1560 1262 1449 c 0
 1262 1433 1263 1418 1263 1403 c 0
 1263 1314 1256 1247 1242 1199 c 0
 1234 1173 1183 1156 1089 1152 c 0
 993 1146 883 1137 758 1134 c 1
 758 1126 758 1117 759 1104 c 0
 760 1091 760 1082 761 1074 c 1
 842 1073 910 1064 962 1054 c 0
 975 1052 985 1030 998 989 c 0
 1011 947 1019 907 1023 861 c 0
 1025 836 1027 813 1027 789 c 0
 1027 769 1025 748 1023 729 c 0
 1019 687 1004 666 984 664 c 0
 970 661 946 656 907 654 c 0
 868 652 822 648 776 647 c 1
 776 638 776 626 776 613 c 0
 776 600 776 590 776 582 c 1
 903 583 1021 589 1122 593 c 0
EndSplineSet
Validated: 1
EndChar

StartChar: f
Encoding: 102 102 43
Width: 1391
VWidth: 2237
GlyphClass: 1
Flags: W
HStem: 2 21G<411 566.5> 361 560<786 1124.93> 1030 647<786 1217.46>
LayerCount: 2
Fore
SplineSet
786 977 m 0
 786 953 786 935 786 921 c 1
 870 920 947 917 1016 913 c 0
 1085 909 1135 900 1161 894 c 0
 1186 886 1200 858 1208 806 c 0
 1211 776 1215 745 1215 712 c 0
 1215 688 1212 664 1210 639 c 0
 1206 579 1196 524 1181 473 c 0
 1166 421 1146 394 1127 391 c 0
 1083 381 1033 371 969 368 c 0
 917 365 862 361 808 361 c 0
 798 361 785 361 772 361 c 1
 759 180 745 78 721 49 c 1
 705 20 630 4 503 2 c 0
 490 2 479 2 466 2 c 0
 356 2 277 15 226 37 c 0
 207 45 188 110 164 242 c 0
 140 373 121 525 102 694 c 0
 83 862 71 1028 63 1194 c 0
 60 1273 57 1344 57 1401 c 0
 57 1465 60 1514 64 1555 c 0
 68 1598 131 1626 246 1645 c 0
 361 1663 491 1675 632 1677 c 0
 669 1678 705 1677 739 1677 c 0
 840 1677 938 1674 1031 1670 c 0
 1156 1662 1234 1655 1259 1649 c 0
 1291 1641 1313 1607 1322 1542 c 0
 1326 1505 1329 1466 1329 1425 c 0
 1329 1394 1326 1364 1324 1332 c 0
 1316 1258 1304 1189 1285 1129 c 0
 1266 1068 1244 1035 1220 1033 c 0
 1166 1029 1102 1027 1025 1027 c 0
 948 1027 867 1028 786 1030 c 1
 786 1016 786 1001 786 977 c 0
EndSplineSet
Validated: 33
EndChar

StartChar: g
Encoding: 103 103 44
Width: 1714
VWidth: 2237
GlyphClass: 1
Flags: W
HStem: 7 877<1194.28 1610.36>
VStem: 48 605<697.432 1004.54>
LayerCount: 2
Fore
SplineSet
847 1108 m 0
 776 1082 723 1041 692 986 c 0
 667 940 653 893 653 847 c 0
 653 837 654 825 655 815 c 0
 663 759 690 705 736 659 c 0
 782 613 850 587 938 584 c 0
 940 584 940 584 942 584 c 0
 1002 584 1035 603 1042 644 c 0
 1050 686 1059 727 1063 769 c 1
 1063 770 1062 771 1062 772 c 0
 1062 798 1091 821 1145 840 c 0
 1201 859 1264 873 1335 879 c 0
 1362 881 1388 884 1414 884 c 0
 1456 884 1494 879 1532 875 c 0
 1592 867 1625 847 1628 818 c 0
 1636 764 1644 697 1647 611 c 0
 1649 542 1650 473 1650 406 c 0
 1650 391 1650 376 1650 361 c 0
 1649 280 1646 208 1642 144 c 0
 1636 80 1624 47 1611 37 c 0
 1598 22 1542 10 1438 8 c 0
 1418 8 1399 7 1380 7 c 0
 1304 7 1248 14 1211 24 c 0
 1205 24 1200 32 1194 42 c 1
 1092 17 988 3 888 3 c 0
 861 3 832 5 805 6 c 0
 580 24 393 113 242 271 c 0
 110 406 48 569 48 759 c 0
 48 790 50 825 53 858 c 0
 82 1112 174 1307 330 1449 c 0
 486 1591 685 1668 922 1682 c 0
 936 1682 948 1683 962 1683 c 0
 1104 1683 1235 1651 1351 1586 c 0
 1478 1514 1547 1384 1549 1198 c 0
 1549 1196 1549 1195 1549 1193 c 0
 1549 1167 1534 1144 1497 1126 c 0
 1458 1107 1411 1091 1359 1081 c 0
 1306 1071 1252 1061 1200 1059 c 0
 1174 1057 1152 1055 1133 1055 c 0
 1114 1055 1099 1057 1089 1059 c 0
 1059 1062 1043 1075 1043 1094 c 0
 1043 1095 1043 1095 1043 1096 c 0
 1043 1097 1043 1098 1043 1099 c 0
 1043 1117 1036 1127 1022 1129 c 0
 1013 1129 1002 1130 994 1130 c 0
 940 1130 892 1123 847 1108 c 0
EndSplineSet
Validated: 1
EndChar

StartChar: h
Encoding: 104 104 45
Width: 1729
VWidth: 2237
GlyphClass: 1
Flags: W
HStem: 0 21G<373.5 428> 0 21G<373.5 428> 1663 20G<353.5 461.5 1218.5 1258.5>
VStem: 55 692<1091.3 1613.79> 947 692<1102.16 1609.89>
LayerCount: 2
Fore
SplineSet
489 2 m 0xb8
 463 1 439 0 417 0 c 0
 330 0 269 10 227 30 c 0
 203 40 179 115 157 254 c 0
 133 393 117 550 101 721 c 0
 85 892 70 1060 62 1221 c 0
 58 1322 55 1405 55 1462 c 0
 55 1494 56 1523 57 1542 c 0
 60 1587 98 1619 166 1643 c 0
 234 1667 313 1681 394 1683 c 0
 403 1683 417 1683 426 1683 c 0
 497 1683 561 1674 621 1659 c 0
 689 1641 729 1616 732 1579 c 0
 738 1515 744 1445 747 1359 c 0
 749 1273 756 1182 757 1088 c 1
 821 1090 882 1096 950 1097 c 1
 948 1165 947 1230 947 1294 c 0
 947 1318 948 1340 948 1362 c 0
 948 1446 951 1518 954 1579 c 0
 956 1617 992 1641 1060 1660 c 0
 1120 1675 1183 1686 1254 1686 c 0
 1263 1686 1276 1684 1285 1684 c 0
 1366 1682 1445 1670 1516 1646 c 0
 1585 1622 1624 1591 1630 1546 c 0
 1636 1503 1639 1429 1639 1320 c 0
 1639 1290 1638 1258 1638 1224 c 0
 1636 1063 1630 896 1622 725 c 0
 1613 553 1599 398 1583 259 c 0
 1567 120 1549 43 1527 33 c 0
 1484 13 1419 3 1329 3 c 0
 1309 3 1287 3 1265 4 c 0
 1142 8 1073 26 1058 55 c 0
 1045 70 1035 115 1022 189 c 0
 1009 263 1000 352 991 456 c 1
 949 448 908 440 866 436 c 0
 823 430 785 422 743 418 c 1
 739 322 729 244 721 178 c 0
 713 112 706 69 697 54 c 0
 683 25 612 6 489 2 c 0xb8
EndSplineSet
Validated: 1
EndChar

StartChar: i
Encoding: 105 105 46
Width: 922
VWidth: 2237
GlyphClass: 1
Flags: W
HStem: 0 21G<396.5 457> 0 21G<396.5 457> 1667 20G<470.5 515> 1667 20G<470.5 515>
VStem: 62 767<578.125 1614.92>
LayerCount: 2
Fore
SplineSet
517 1 m 0xa8
 492 0 468 0 446 0 c 0
 347 0 274 10 227 30 c 0
 202 40 179 115 155 254 c 0
 131 393 115 552 99 724 c 0
 83 895 70 1062 62 1223 c 0
 59 1300 57 1365 57 1417 c 0
 57 1473 59 1517 62 1546 c 0
 66 1590 107 1622 185 1646 c 0
 262 1670 345 1684 437 1686 c 0
 450 1686 464 1687 477 1687 c 0
 553 1687 623 1679 689 1664 c 0
 764 1646 806 1619 809 1581 c 0
 822 1477 827 1343 828 1178 c 0
 828 1151 829 1124 829 1097 c 0
 829 961 825 828 819 694 c 0
 813 535 805 394 791 271 c 0
 777 148 763 75 747 53 c 1
 732 23 654 5 517 1 c 0xa8
EndSplineSet
Validated: 1
EndChar

StartChar: j
Encoding: 106 106 47
Width: 1656
VWidth: 2237
GlyphClass: 1
Flags: W
HStem: 0 21G<707.5 860> 0 21G<707.5 860> 1657 20G<1205 1241.5>
VStem: 878 695<620.552 1460.44>
LayerCount: 2
Fore
SplineSet
1181 64 m 0xb0
 1056 22 927 0 793 0 c 0
 790 0 781 0 778 0 c 0
 637 2 502 34 368 90 c 0
 233 146 149 239 107 362 c 0
 83 434 67 513 63 594 c 0
 61 626 61 659 61 690 c 0
 61 737 64 783 68 829 c 1
 68 885 96 931 160 958 c 0
 221 985 289 1002 363 1004 c 0
 373 1004 387 1005 397 1005 c 0
 457 1005 511 999 562 983 c 0
 618 964 650 940 650 908 c 0
 650 907 650 906 650 905 c 0
 651 879 650 848 650 814 c 0
 650 780 651 741 650 698 c 0
 650 697 650 696 650 695 c 0
 650 614 689 571 764 570 c 0
 766 570 767 570 768 570 c 0
 814 570 843 587 856 619 c 0
 866 652 876 692 878 735 c 0
 882 804 885 873 885 941 c 0
 885 1033 880 1124 872 1213 c 0
 859 1328 855 1418 855 1475 c 0
 855 1495 855 1510 856 1524 c 0
 858 1569 892 1604 956 1629 c 0
 1020 1654 1089 1672 1166 1676 c 0
 1182 1677 1197 1677 1213 1677 c 0
 1270 1677 1328 1669 1380 1659 c 0
 1447 1644 1488 1618 1498 1581 c 0
 1512 1529 1526 1443 1542 1320 c 0
 1558 1197 1568 1068 1572 929 c 0
 1573 890 1573 852 1573 814 c 0
 1573 717 1570 623 1561 533 c 0
 1547 408 1518 316 1473 262 c 0
 1407 172 1312 107 1181 64 c 0xb0
EndSplineSet
Validated: 33
EndChar

StartChar: k
Encoding: 107 107 48
Width: 1584
VWidth: 2237
GlyphClass: 1
Flags: W
HStem: 0 22G<353 411.5 1263.5 1280.5> 0 22G<353 411.5 1263.5 1280.5> 1648 20G<485.5 527>
VStem: 71 729<1388 1602.15>
LayerCount: 2
Fore
SplineSet
1407 1089 m 0xb0
 1333 1001 1247 907 1150 807 c 1
 1306 728 1429 658 1522 594 c 0
 1538 584 1545 558 1545 525 c 0
 1545 509 1540 491 1537 469 c 0
 1524 402 1506 333 1476 262 c 0
 1446 191 1409 127 1367 74 c 0
 1330 27 1296 1 1265 1 c 0
 1262 1 1256 1 1253 2 c 0
 1215 10 1151 39 1057 84 c 0
 963 129 866 179 758 234 c 1
 744 136 729 75 715 56 c 0
 699 26 624 10 488 2 c 0
 456 0 425 0 398 0 c 0
 308 0 242 10 199 29 c 0
 174 39 154 115 135 254 c 0
 116 393 100 553 91 725 c 0
 81 897 74 1066 72 1227 c 0
 71 1275 71 1320 71 1359 c 0
 71 1449 72 1513 78 1552 c 0
 82 1585 125 1611 199 1630 c 0
 273 1649 349 1665 436 1667 c 0
 456 1668 476 1668 495 1668 c 0
 559 1668 620 1662 675 1653 c 0
 746 1640 783 1623 785 1596 c 0
 787 1566 794 1532 796 1499 c 0
 798 1467 799 1430 800 1388 c 1
 886 1459 963 1515 1034 1559 c 0
 1091 1596 1135 1615 1160 1615 c 0
 1164 1615 1170 1614 1173 1613 c 0
 1229 1587 1300 1530 1387 1441 c 0
 1471 1354 1513 1297 1513 1267 c 0
 1513 1266 1512 1266 1512 1265 c 0
 1512 1264 1513 1263 1513 1262 c 0
 1513 1232 1478 1175 1407 1089 c 0xb0
EndSplineSet
Validated: 1
EndChar

StartChar: l
Encoding: 108 108 49
Width: 1387
VWidth: 2237
GlyphClass: 1
Flags: W
HStem: 1 1679<188.722 729.257> 1 690<771.202 1244.39>
VStem: 81 678<720.451 1610.43>
LayerCount: 2
Fore
SplineSet
755 1421 m 0xa0
 756 1328 758 1230 759 1130 c 0
 760 1030 761 939 763 859 c 0
 764 778 769 729 771 720 c 0
 775 704 799 695 843 694 c 0
 859 693 878 691 896 691 c 0x60
 925 691 958 694 990 695 c 0
 1043 697 1095 702 1144 704 c 0
 1160 705 1174 705 1187 705 c 0
 1213 705 1232 702 1245 699 c 0
 1271 691 1294 652 1310 585 c 0
 1326 517 1339 446 1343 368 c 0
 1344 343 1344 320 1344 296 c 0
 1344 244 1340 194 1334 149 c 0
 1326 82 1311 47 1286 43 c 0
 1248 34 1175 24 1064 16 c 0
 952 8 835 2 712 1 c 0
 696 1 679 1 664 1 c 0
 560 1 459 6 366 13 c 0
 258 21 196 39 171 65 c 0
 146 91 128 178 114 321 c 0
 100 464 90 622 87 793 c 0
 84 926 81 1051 81 1173 c 0
 81 1211 81 1246 81 1284 c 0
 82 1440 86 1540 90 1591 c 0
 92 1621 127 1643 195 1657 c 0
 263 1671 338 1679 417 1680 c 0
 496 1680 572 1673 640 1660 c 0
 707 1647 743 1632 745 1612 c 0
 747 1579 753 1514 755 1421 c 0xa0
EndSplineSet
Validated: 1
EndChar

StartChar: m
Encoding: 109 109 50
Width: 2305
VWidth: 2237
GlyphClass: 1
Flags: W
HStem: 1 21G<427 453.5> 1 21G<427 453.5> 1655 21G<388.5 457.5 1818 1853.5>
VStem: 1553 657<128.815 573> 1591 564<22.9376 543.973>
LayerCount: 2
Fore
SplineSet
1357 1391 m 0xb0
 1424 1488 1484 1563 1536 1612 c 0
 1560 1634 1601 1651 1667 1660 c 0
 1724 1668 1786 1675 1850 1675 c 0
 1857 1675 1865 1674 1872 1674 c 0
 1943 1673 2009 1667 2065 1658 c 0
 2121 1649 2157 1634 2165 1615 c 0
 2179 1584 2191 1489 2199 1333 c 0
 2207 1176 2210 1007 2210 824 c 0xb0
 2210 641 2206 474 2198 318 c 0
 2190 162 2174 71 2155 42 c 0
 2140 24 2066 11 1931 8 c 0
 1886 7 1848 4 1811 4 c 0
 1739 4 1687 9 1650 16 c 0
 1628 19 1610 83 1591 205 c 0xa8
 1572 327 1559 449 1553 573 c 1
 1539 558 1513 533 1475 492 c 0
 1436 451 1397 414 1354 372 c 0
 1311 330 1272 292 1231 261 c 0
 1189 230 1162 213 1143 213 c 0
 1124 213 1096 230 1057 260 c 0
 1018 290 979 324 937 366 c 0
 895 407 859 441 822 480 c 0
 785 519 761 546 747 560 c 1
 739 444 725 325 707 205 c 0
 689 85 672 22 652 16 c 0
 625 8 584 3 531 2 c 0
 500 1 469 1 438 1 c 0
 416 1 392 1 368 2 c 0
 314 4 266 10 223 18 c 0
 179 24 152 34 148 42 c 0
 129 69 113 163 104 321 c 0
 95 479 88 652 87 836 c 0
 87 867 87 895 87 925 c 0
 87 1073 89 1214 95 1346 c 0
 101 1502 114 1591 129 1616 c 0
 139 1634 176 1650 232 1659 c 0
 288 1668 354 1675 423 1676 c 0
 492 1676 561 1669 626 1660 c 0
 691 1651 732 1634 756 1612 c 0
 808 1563 869 1488 937 1391 c 0
 1005 1294 1075 1192 1146 1084 c 1
 1218 1192 1289 1294 1357 1391 c 0xb0
EndSplineSet
Validated: 1
EndChar

StartChar: n
Encoding: 110 110 51
Width: 1805
VWidth: 2237
GlyphClass: 1
Flags: W
HStem: 2 21G<432 489.5 1381 1407.5> 1652 29G<406 437.5 1324.5 1439.5> 1661 20G<1324.5 1439.5>
VStem: 152 542<32.4065 390.188>
LayerCount: 2
Fore
SplineSet
1589 19 m 0xd0
 1545 11 1497 4 1445 3 c 0
 1430 2 1415 2 1400 2 c 0
 1362 2 1326 6 1292 8 c 0
 1243 11 1211 19 1193 27 c 0
 1168 37 1130 67 1084 113 c 0
 1038 159 989 212 940 266 c 0
 891 320 844 374 802 423 c 0
 760 470 737 503 727 518 c 1
 717 387 707 277 694 184 c 0
 681 91 668 40 649 32 c 0
 606 12 536 2 443 2 c 0
 421 2 397 2 371 3 c 0
 237 7 166 26 152 56 c 1
 136 78 121 153 111 277 c 0
 98 401 89 545 87 706 c 0
 85 786 85 868 85 949 c 0
 85 1030 85 1114 87 1198 c 0
 90 1365 103 1499 119 1603 c 0
 121 1623 148 1642 197 1652 c 0
 244 1662 301 1669 365 1671 c 0
 381 1672 398 1672 414 1672 c 0
 461 1672 508 1669 555 1665 c 0
 619 1657 667 1647 700 1633 c 0
 751 1609 815 1549 890 1452 c 0
 965 1354 1022 1279 1055 1228 c 1
 1053 1306 1049 1376 1047 1436 c 0
 1046 1466 1046 1493 1046 1515 c 0
 1046 1537 1046 1554 1047 1569 c 0
 1048 1606 1082 1630 1148 1649 c 0
 1214 1667 1285 1679 1364 1681 c 0
 1379 1681 1394 1681 1409 1681 c 0
 1470 1681 1529 1675 1582 1665 c 0
 1648 1651 1682 1629 1684 1603 c 0
 1694 1495 1704 1361 1706 1194 c 0
 1707 1110 1707 1025 1707 944 c 0
 1707 863 1707 781 1706 701 c 0
 1704 540 1698 396 1690 273 c 0
 1682 150 1676 75 1668 56 c 0
 1660 38 1633 27 1589 19 c 0xd0
EndSplineSet
Validated: 1
EndChar

StartChar: o
Encoding: 111 111 52
Width: 1821
VWidth: 2237
GlyphClass: 1
Flags: W
HStem: 0 628<758.781 1039.63> 1666 20G<773.5 882> 1666 20G<773.5 882>
LayerCount: 2
Fore
SplineSet
1408 163 m 0xc0
 1265 54 1104 0 924 0 c 0
 872 0 816 6 761 14 c 0
 525 55 342 164 206 350 c 0
 98 496 45 657 45 828 c 0
 45 874 48 922 55 969 c 0
 88 1179 193 1356 362 1498 c 0
 509 1623 678 1686 869 1686 c 0
 895 1686 921 1684 948 1682 c 0
 1219 1658 1429 1557 1578 1375 c 0
 1697 1233 1755 1067 1755 879 c 0
 1755 827 1749 774 1741 719 c 0
 1702 488 1592 304 1408 163 c 0xc0
1079 971 m 0
 1046 1016 996 1043 931 1053 c 0
 917 1055 904 1055 891 1055 c 0
 845 1055 805 1043 768 1014 c 0
 722 977 693 929 685 874 c 0
 683 860 681 849 681 836 c 0
 681 784 699 738 740 695 c 0
 783 650 835 628 895 628 c 0
 904 628 916 628 925 629 c 0
 976 633 1018 656 1051 689 c 0
 1084 722 1105 765 1113 811 c 0
 1115 826 1118 840 1118 854 c 0
 1118 898 1105 938 1079 971 c 0
EndSplineSet
Validated: 1
EndChar

StartChar: p
Encoding: 112 112 53
Width: 1506
VWidth: 2237
GlyphClass: 1
Flags: W
HStem: 1 21G<369 429> 1 21G<369 429> 1181 493<531.413 912.91>
VStem: 960 477<894.439 1134.63>
LayerCount: 2
Fore
SplineSet
1204 513 m 0xb0
 1096 419 972 370 828 370 c 0
 808 370 790 371 770 372 c 1
 764 286 754 215 746 159 c 0
 737 103 725 67 715 53 c 0
 700 24 627 6 492 2 c 0
 466 1 441 1 417 1 c 0
 321 1 252 10 207 30 c 0
 182 40 159 113 140 249 c 0
 121 384 107 536 94 705 c 0
 81 874 71 1038 69 1194 c 0
 68 1259 68 1314 68 1361 c 0
 68 1428 69 1476 72 1507 c 0
 76 1556 120 1596 199 1622 c 0
 278 1648 371 1664 473 1670 c 0
 512 1672 549 1674 588 1674 c 0
 654 1674 722 1671 789 1664 c 0
 897 1651 979 1635 1036 1610 c 0
 1303 1498 1437 1311 1437 1051 c 0
 1437 1008 1434 964 1427 917 c 0
 1402 756 1326 622 1204 513 c 0xb0
796 1179 m 0
 788 1180 780 1181 773 1181 c 0
 766 1181 760 1180 756 1179 c 0
 692 1169 660 1126 660 1052 c 0
 660 1045 661 1037 661 1030 c 0
 667 942 688 886 730 860 c 0
 740 853 756 847 775 847 c 0
 784 847 797 848 810 850 c 0
 863 858 903 880 930 919 c 0
 950 946 960 978 960 1011 c 0
 960 1021 959 1035 957 1048 c 0
 941 1127 886 1170 796 1179 c 0
EndSplineSet
Validated: 1
EndChar

StartChar: q
Encoding: 113 113 54
Width: 2169
VWidth: 2237
GlyphClass: 1
Flags: W
HStem: 0 21G<639 730> 0 21G<639 730> 1059 629<610.928 833.47>
VStem: 47 499<695.564 994.986> 888 503<684.666 1004.3> 1440 100<81.9006 700.575> 1596 137<323.105 708.568> 1825 134<324.824 717.111> 1977 115<21.7562 91.6236 93.218 385.299 389.156 700.296> 2019 99<93.218 696.753>
LayerCount: 2
Fore
SplineSet
1341 531 m 1xbf
 1385 465 1408 415 1409 384 c 0
 1409 383 1409 382 1409 381 c 0
 1409 355 1379 297 1314 205 c 0
 1248 109 1198 47 1159 20 c 0
 1155 17 1145 14 1137 14 c 0
 1127 14 1114 18 1099 25 c 0
 1072 38 1039 54 1007 79 c 1
 943 40 877 14 799 4 c 0
 772 1 743 0 717 0 c 0
 561 0 424 64 300 189 c 0
 156 336 70 521 51 748 c 0
 49 780 47 812 47 844 c 0
 47 1027 93 1198 189 1357 c 0
 301 1544 448 1652 631 1681 c 0
 664 1685 696 1688 728 1688 c 0
 808 1688 885 1671 956 1638 c 0
 1055 1592 1141 1523 1209 1433 c 0
 1277 1343 1329 1234 1361 1110 c 0
 1381 1031 1391 949 1391 861 c 0
 1391 815 1389 767 1383 719 c 0
 1374 652 1359 587 1341 531 c 1xbf
740 1054 m 0
 730 1056 717 1059 708 1059 c 0
 665 1059 630 1038 597 995 c 0
 564 950 546 901 546 846 c 0
 546 838 546 827 547 818 c 0
 551 762 571 715 608 676 c 0
 639 645 673 628 715 628 c 0
 722 628 731 628 738 629 c 0
 824 642 869 703 883 813 c 0
 885 832 888 848 888 864 c 0
 888 968 837 1033 740 1054 c 0
1842 713 m 4
 1856 717 1868 720 1883 720 c 4
 1898 720 1913 716 1927 713 c 4
 1941 709 1949 701 1951 691 c 4
 1953 675 1957 650 1958 611 c 4
 1959 589 1959 564 1959 539 c 4
 1959 521 1958 505 1958 486 c 4
 1957 441 1953 397 1951 354 c 4
 1949 310 1943 277 1937 251 c 4
 1923 198 1905 154 1880 121 c 4
 1855 87 1825 67 1792 64 c 4
 1789 64 1784 63 1781 63 c 4
 1743 63 1710 82 1678 120 c 4
 1644 163 1617 220 1603 289 c 4
 1599 311 1598 346 1596 389 c 4
 1594 433 1593 475 1593 519 c 4
 1593 564 1595 603 1597 640 c 4
 1599 677 1604 700 1608 709 c 4
 1611 717 1623 723 1637 725 c 4
 1646 726 1657 727 1667 727 c 4
 1670 727 1675 727 1678 727 c 4
 1693 725 1707 723 1720 717 c 4
 1730 713 1737 705 1737 698 c 4
 1737 676 1736 645 1734 603 c 4
 1733 579 1733 555 1733 531 c 4
 1733 513 1733 495 1733 479 c 4
 1734 437 1736 404 1742 373 c 4
 1748 342 1758 325 1772 323 c 4
 1773 323 1778 322 1779 322 c 4
 1793 322 1802 335 1808 362 c 4
 1814 393 1819 429 1821 472 c 4
 1822 503 1825 535 1825 566 c 4
 1825 576 1825 592 1825 602 c 4
 1825 631 1824 653 1824 672 c 4
 1824 681 1825 690 1825 696 c 4
 1825 704 1829 709 1842 713 c 4
1466 147 m 4
 1448 212 1441 287 1440 371 c 4
 1440 377 1440 383 1440 389 c 4
 1440 466 1445 537 1458 602 c 4
 1462 628 1469 656 1476 682 c 4
 1483 708 1494 730 1504 749 c 4
 1514 769 1529 779 1544 779 c 4
 1546 779 1549 777 1551 777 c 4
 1565 774 1573 760 1580 738 c 4
 1583 725 1586 714 1586 701 c 4
 1586 692 1584 679 1582 670 c 4
 1553 559 1540 470 1540 403 c 4
 1540 389 1542 375 1543 362 c 4
 1550 293 1558 234 1571 191 c 4
 1578 162 1585 136 1587 110 c 4
 1587 107 1587 101 1587 98 c 4
 1587 77 1581 59 1568 44 c 4
 1560 36 1552 30 1544 30 c 4
 1536 30 1522 36 1514 44 c 4
 1495 65 1480 98 1466 147 c 4
1990 27 m 4
 1984 37 1979 51 1977 66 c 4x3f80
 1976 74 1976 84 1976 92 c 4
 1976 118 1979 143 1986 172 c 4
 1999 215 2010 276 2017 345 c 4
 2018 359 2019 371 2019 386 c 4x3f40
 2019 453 2006 541 1977 651 c 4x3f80
 1973 670 1970 686 1970 701 c 4
 1970 705 1971 709 1971 713 c 4
 1975 744 1986 759 2004 759 c 4
 2006 759 2011 759 2014 758 c 4
 2036 752 2052 736 2062 712 c 4
 2070 694 2079 674 2085 652 c 4
 2091 630 2097 606 2101 582 c 4
 2111 517 2118 448 2118 371 c 4
 2118 365 2118 357 2118 351 c 4x3f40
 2117 267 2110 196 2092 131 c 4x3f80
 2072 57 2048 16 2019 9 c 4x3f40
 2018 9 2017 8 2016 8 c 4
 2008 8 1997 14 1990 27 c 4
EndSplineSet
Validated: 1
EndChar

StartChar: r
Encoding: 114 114 55
Width: 1552
VWidth: 2237
GlyphClass: 1
Flags: W
HStem: 1 21G<306 428> 1 21G<306 428> 1211 500<425 818.726>
VStem: 73 512<926.869 1202.65> 873 508<968.922 1174.08>
LayerCount: 2
Fore
SplineSet
1442 522 m 0xb8
 1497 466 1527 421 1528 391 c 0
 1528 371 1515 338 1490 296 c 0
 1465 254 1440 213 1409 171 c 0
 1378 129 1347 95 1317 64 c 0
 1287 33 1266 15 1256 15 c 0
 1250 14 1243 14 1236 14 c 0
 1190 14 1130 40 1052 89 c 0
 962 146 886 186 831 205 c 0
 812 211 796 214 783 214 c 0
 759 214 744 204 742 184 c 1
 742 180 742 173 742 169 c 0
 742 124 738 90 730 65 c 0
 721 38 683 20 622 14 c 0
 553 6 473 2 383 1 c 0
 368 1 353 1 339 1 c 0
 273 1 232 4 212 8 c 0
 196 10 180 21 171 37 c 0
 157 56 140 146 124 307 c 0
 108 468 92 641 83 830 c 0
 76 989 73 1136 73 1273 c 0
 73 1299 73 1326 73 1351 c 0
 74 1508 83 1589 105 1602 c 0
 184 1647 290 1679 425 1698 c 0
 481 1706 540 1711 596 1711 c 0
 672 1711 748 1704 824 1688 c 0
 958 1662 1075 1608 1179 1524 c 0
 1281 1443 1346 1323 1370 1164 c 0
 1376 1119 1381 1078 1381 1037 c 0
 1381 889 1335 777 1246 702 c 1
 1320 638 1387 578 1442 522 c 0xb8
825 971 m 0
 855 1008 873 1042 873 1081 c 0
 872 1120 853 1151 820 1178 c 0
 793 1199 754 1211 705 1211 c 0
 690 1211 675 1209 657 1207 c 0
 609 1203 585 1165 585 1098 c 0
 585 1083 586 1067 588 1048 c 0
 598 955 633 909 686 909 c 0
 689 909 693 909 696 909 c 0
 751 913 795 934 825 971 c 0
EndSplineSet
Validated: 1
EndChar

StartChar: s
Encoding: 115 115 56
Width: 1422
VWidth: 2237
GlyphClass: 1
Flags: W
HStem: 15 491<621.122 801.933> 1254 475<601.553 781.427>
LayerCount: 2
Fore
SplineSet
806 1165 m 0
 791 1175 782 1185 782 1199 c 0
 781 1213 774 1226 760 1236 c 0
 745 1249 727 1254 708 1254 c 0
 683 1254 654 1243 622 1221 c 0
 602 1207 592 1193 592 1183 c 0
 592 1162 625 1144 691 1130 c 0
 701 1128 711 1128 725 1126 c 0
 739 1124 753 1120 767 1118 c 0
 934 1089 1067 1038 1164 967 c 0
 1284 879 1353 767 1372 626 c 0
 1374 605 1375 583 1375 562 c 0
 1375 447 1332 339 1252 245 c 0
 1139 113 985 38 792 19 c 0
 761 17 730 15 700 15 c 0
 544 15 408 55 289 141 c 0
 167 227 88 336 58 463 c 0
 56 471 56 482 56 490 c 0
 56 538 88 579 152 606 c 0
 184 621 220 632 262 638 c 0
 303 644 337 650 374 650 c 0
 434 650 488 642 535 628 c 0
 582 614 611 593 617 567 c 0
 618 564 621 557 623 553 c 0
 631 535 645 521 669 513 c 0
 679 509 693 506 707 506 c 0
 726 506 744 510 765 517 c 0
 790 526 803 542 803 561 c 0
 803 569 798 580 794 589 c 0
 786 605 764 619 727 628 c 0
 641 653 562 671 476 685 c 0
 390 698 308 734 233 789 c 0
 179 830 137 880 107 948 c 0
 83 999 73 1066 73 1143 c 0
 73 1168 73 1195 75 1222 c 0
 89 1376 159 1500 293 1598 c 0
 371 1654 459 1695 558 1714 c 0
 607 1723 656 1729 704 1729 c 0
 752 1729 802 1723 848 1714 c 0
 941 1695 1023 1654 1098 1598 c 0
 1172 1542 1224 1461 1253 1365 c 0
 1255 1356 1259 1347 1259 1339 c 0
 1259 1314 1249 1290 1225 1271 c 0
 1194 1244 1148 1223 1102 1205 c 0
 1056 1187 1007 1174 958 1166 c 0
 909 1158 873 1153 848 1152 c 0
 847 1152 842 1152 841 1152 c 0
 827 1152 816 1158 806 1165 c 0
EndSplineSet
Validated: 1
EndChar

StartChar: t
Encoding: 116 116 57
Width: 1772
VWidth: 2237
GlyphClass: 1
Flags: W
HStem: 0 21G<862.5 891> 0 21G<862.5 891> 973 698<105.401 513.497 1247 1629.58>
LayerCount: 2
Fore
SplineSet
1092 18 m 0xa0
 1047 10 997 3 942 1 c 0
 922 0 901 0 881 0 c 0
 844 0 811 1 774 3 c 0
 719 6 677 17 648 30 c 0
 618 44 591 149 567 350 c 0
 542 553 524 757 511 963 c 1
 402 965 313 971 235 979 c 0
 157 988 113 1001 105 1019 c 0
 91 1046 80 1092 71 1153 c 0
 62 1217 54 1278 52 1343 c 0
 51 1372 51 1399 51 1425 c 0
 51 1457 51 1489 53 1518 c 0
 55 1570 67 1601 81 1609 c 0
 101 1625 173 1639 295 1648 c 0
 417 1657 557 1667 715 1669 c 0
 816 1671 921 1672 1024 1672 c 0
 1080 1672 1142 1672 1198 1671 c 0
 1361 1670 1497 1666 1601 1660 c 0
 1643 1658 1669 1621 1684 1553 c 0
 1694 1500 1702 1442 1702 1379 c 0
 1702 1361 1702 1346 1701 1328 c 0
 1698 1247 1684 1169 1664 1101 c 0
 1644 1033 1618 998 1588 996 c 0
 1561 993 1516 987 1455 984 c 0
 1394 982 1324 975 1247 973 c 1
 1245 768 1239 570 1225 379 c 0
 1211 189 1195 79 1175 52 c 0
 1167 38 1137 26 1092 18 c 0xa0
EndSplineSet
Validated: 1
EndChar

StartChar: u
Encoding: 117 117 58
Width: 1848
VWidth: 2237
GlyphClass: 1
Flags: W
HStem: 1 649<799.232 1028.79> 1647 20G<364.5 399>
VStem: 61 648<768.814 1585.68> 1136 627<824.587 1573.15>
LayerCount: 2
Fore
SplineSet
1223 1630 m 0
 1279 1643 1347 1648 1418 1648 c 0
 1425 1648 1432 1648 1439 1648 c 0
 1503 1648 1561 1643 1616 1633 c 0
 1680 1620 1716 1601 1726 1575 c 0
 1741 1536 1752 1471 1758 1375 c 0
 1761 1311 1763 1243 1763 1172 c 0
 1763 1135 1762 1100 1761 1062 c 0
 1758 950 1748 841 1733 732 c 0
 1717 623 1694 540 1665 476 c 0
 1604 341 1514 234 1398 148 c 0
 1282 62 1146 16 995 3 c 0
 974 2 951 1 930 1 c 0
 763 1 607 50 461 144 c 0
 295 252 181 391 117 570 c 0
 97 626 80 709 72 818 c 0
 64 912 61 1009 61 1106 c 0
 61 1120 61 1134 61 1148 c 0
 62 1259 67 1358 80 1448 c 0
 93 1538 109 1597 134 1622 c 0
 154 1641 197 1654 262 1660 c 0
 303 1663 343 1667 386 1667 c 0
 412 1667 438 1666 465 1665 c 0
 533 1663 596 1653 650 1639 c 0
 703 1626 730 1610 730 1591 c 0
 729 1535 726 1454 718 1353 c 0
 714 1288 709 1221 709 1155 c 0
 709 1117 712 1083 713 1046 c 0
 715 946 729 855 756 777 c 0
 782 699 832 659 900 651 c 0
 907 650 913 650 919 650 c 0
 983 650 1030 683 1060 752 c 0
 1091 830 1114 919 1123 1027 c 0
 1130 1113 1136 1195 1136 1281 c 0
 1136 1303 1135 1325 1135 1346 c 0
 1134 1399 1134 1445 1134 1486 c 0
 1134 1527 1134 1560 1135 1586 c 0
 1136 1605 1167 1620 1223 1630 c 0
EndSplineSet
Validated: 1
EndChar

StartChar: v
Encoding: 118 118 59
Width: 1956
VWidth: 2237
GlyphClass: 1
Flags: W
HStem: 0 21G<960.5 1013.5> 0 21G<960.5 1013.5> 1651 20G<548.5 577 1355 1383.5>
LayerCount: 2
Fore
SplineSet
1141 1339 m 0xa0
 1197 1462 1251 1563 1296 1638 c 0
 1310 1662 1334 1671 1376 1671 c 0
 1391 1671 1409 1670 1428 1668 c 0
 1499 1655 1570 1632 1645 1599 c 0
 1719 1566 1787 1522 1842 1475 c 0
 1887 1436 1909 1398 1909 1364 c 0
 1909 1357 1905 1348 1903 1341 c 0
 1888 1292 1851 1198 1790 1059 c 0
 1729 920 1663 776 1589 627 c 0
 1515 478 1444 343 1376 221 c 0
 1308 99 1260 33 1230 19 c 0
 1216 13 1185 5 1139 3 c 0
 1093 1 1040 0 987 0 c 0
 934 0 885 2 839 4 c 0
 793 6 762 15 748 19 c 0
 718 33 668 96 600 210 c 0
 532 324 457 459 382 603 c 0
 305 747 236 891 171 1032 c 0
 105 1173 61 1276 39 1341 c 0
 37 1349 35 1358 35 1366 c 0
 35 1399 56 1436 99 1475 c 0
 152 1522 215 1566 289 1599 c 0
 363 1632 435 1655 506 1668 c 0
 525 1670 541 1671 556 1671 c 0
 598 1671 626 1662 640 1638 c 0
 700 1537 759 1425 814 1309 c 0
 869 1193 924 1076 977 965 c 1
 1030 1088 1085 1216 1141 1339 c 0xa0
EndSplineSet
Validated: 1
EndChar

StartChar: w
Encoding: 119 119 60
Width: 2145
VWidth: 2237
GlyphClass: 1
Flags: W
HStem: 1 21G<1562 1664> 1 21G<1562 1664> 1661 20G<433.5 509 1602 1802> 1661 20G<433.5 509 1602 1802>
LayerCount: 2
Fore
SplineSet
1823 18 m 0xa0
 1767 9 1700 2 1628 1 c 0
 1615 1 1605 1 1592 1 c 0
 1532 1 1475 3 1421 9 c 0
 1354 15 1313 28 1294 46 c 0
 1264 70 1228 110 1183 166 c 0
 1138 221 1106 266 1081 298 c 1
 1052 257 1019 213 982 166 c 0
 945 117 913 76 876 46 c 0
 857 30 813 19 748 13 c 0
 697 10 644 4 590 4 c 0
 575 4 560 4 544 4 c 0
 472 5 402 12 346 20 c 0
 289 29 254 41 250 56 c 0
 206 157 172 294 143 460 c 0
 114 625 92 786 78 947 c 0
 63 1108 55 1253 55 1376 c 0
 55 1389 55 1401 55 1411 c 0
 55 1512 62 1575 72 1597 c 0
 76 1611 103 1625 149 1639 c 0
 195 1653 247 1662 304 1670 c 0
 355 1676 408 1681 459 1681 c 0
 466 1681 474 1681 481 1681 c 0
 537 1681 584 1674 614 1660 c 0
 643 1646 666 1560 691 1401 c 0
 715 1240 740 1070 766 888 c 1
 786 910 839 964 918 1053 c 0
 997 1141 1053 1188 1082 1190 c 0
 1083 1190 1082 1190 1083 1190 c 0
 1108 1190 1156 1144 1228 1053 c 0
 1300 961 1347 905 1363 886 c 1
 1382 1068 1401 1239 1425 1400 c 0
 1449 1561 1471 1646 1500 1660 c 0
 1529 1674 1574 1681 1630 1681 c 0
 1637 1681 1646 1681 1653 1681 c 0
 1802 1670 l 0
 1858 1662 1912 1653 1958 1639 c 0
 2004 1625 2032 1611 2036 1597 c 0
 2050 1572 2057 1500 2059 1377 c 0
 2059 1352 2060 1325 2060 1298 c 0
 2060 1195 2055 1075 2048 948 c 0
 2039 787 2022 628 2002 462 c 0
 1980 296 1952 160 1920 56 c 0
 1916 40 1879 27 1823 18 c 0xa0
EndSplineSet
Validated: 1
EndChar

StartChar: x
Encoding: 120 120 61
Width: 1773
VWidth: 2237
GlyphClass: 1
Flags: W
HStem: -1 21G<476.5 501.5> 1655 20G<1340.5 1349> 1672 20G<496 518.5 1340.5 1349>
LayerCount: 2
Fore
SplineSet
1416 1639 m 0xc0
 1455 1612 1495 1576 1537 1534 c 0
 1579 1492 1617 1453 1654 1408 c 0
 1691 1363 1714 1325 1724 1295 c 0
 1725 1293 1725 1289 1725 1287 c 0
 1725 1262 1694 1210 1634 1134 c 0
 1567 1048 1483 953 1383 842 c 1
 1475 740 1550 646 1611 567 c 0
 1672 488 1705 439 1707 415 c 0
 1707 413 1711 408 1711 406 c 0
 1711 390 1699 364 1678 331 c 0
 1653 289 1621 249 1582 205 c 0
 1543 161 1502 122 1459 84 c 0
 1416 46 1380 20 1350 10 c 0
 1348 9 1345 9 1343 9 c 0
 1318 9 1265 40 1187 100 c 0
 1099 167 1005 250 906 350 c 1
 822 269 750 198 685 138 c 0
 619 78 573 36 544 16 c 0
 528 6 512 -1 491 -1 c 0
 462 -1 429 10 392 30 c 0
 327 67 268 118 212 178 c 0
 156 238 110 297 79 362 c 0
 60 400 50 433 50 459 c 0
 50 478 55 490 64 503 c 0
 102 547 149 599 205 659 c 0
 261 719 328 784 396 852 c 1
 237 1015 130 1127 83 1191 c 0
 69 1207 64 1228 64 1250 c 0
 64 1277 74 1310 93 1344 c 0
 126 1409 177 1469 234 1525 c 0
 290 1581 350 1630 414 1663 c 0
 452 1683 483 1692 509 1692 c 0xa0
 528 1692 542 1686 555 1677 c 0
 601 1638 655 1589 716 1533 c 0
 777 1477 841 1412 909 1344 c 1
 1010 1437 1102 1513 1181 1577 c 0
 1260 1641 1311 1672 1335 1674 c 0
 1336 1674 1340 1675 1341 1675 c 0
 1357 1675 1382 1664 1416 1639 c 0xc0
EndSplineSet
Validated: 1
EndChar

StartChar: y
Encoding: 121 121 62
Width: 1816
VWidth: 2237
GlyphClass: 1
Flags: W
HStem: 0 21G<836.5 865.5> 0 21G<836.5 865.5> 1638 20G<1373 1408.5>
LayerCount: 2
Fore
SplineSet
1619 1019 m 0xa0
 1526 906 1413 786 1286 662 c 1
 1278 508 1268 372 1249 250 c 0
 1230 128 1209 57 1193 37 c 0
 1185 28 1155 17 1104 13 c 0
 1052 9 998 2 938 1 c 0
 908 0 880 0 851 0 c 0
 822 0 796 0 770 1 c 0
 717 2 682 8 672 14 c 0
 647 28 624 94 599 216 c 0
 573 338 552 475 538 626 c 1
 403 752 286 873 189 989 c 0
 91 1105 39 1182 36 1219 c 0
 35 1222 35 1225 35 1228 c 0
 35 1249 47 1278 72 1320 c 0
 102 1367 137 1419 180 1468 c 0
 223 1517 267 1558 310 1597 c 0
 353 1636 381 1655 400 1656 c 0
 401 1656 405 1656 406 1656 c 0
 449 1656 513 1618 603 1547 c 0
 695 1472 794 1384 898 1284 c 1
 1006 1384 1102 1473 1195 1548 c 0
 1284 1620 1351 1658 1395 1658 c 0
 1396 1658 1398 1658 1399 1658 c 0
 1418 1657 1447 1638 1490 1601 c 0
 1533 1564 1576 1523 1619 1477 c 0
 1662 1431 1699 1385 1729 1339 c 0
 1754 1300 1766 1271 1766 1251 c 0
 1766 1248 1766 1243 1765 1240 c 0
 1761 1207 1711 1131 1619 1019 c 0xa0
EndSplineSet
Validated: 1
EndChar

StartChar: z
Encoding: 122 122 63
Width: 1602
VWidth: 2237
GlyphClass: 1
Flags: W
HStem: 2 651<1066 1484.18> 1051 631<185.833 644>
VStem: 57 1483<56.9876 524.683>
LayerCount: 2
Fore
SplineSet
126 1193 m 0
 118 1237 113 1286 111 1340 c 0
 110 1360 110 1379 110 1399 c 0
 110 1433 111 1468 113 1502 c 0
 116 1555 127 1596 140 1622 c 0
 149 1646 213 1660 329 1668 c 0
 445 1676 577 1682 721 1682 c 0
 865 1682 1005 1675 1140 1671 c 0
 1275 1665 1366 1658 1412 1652 c 0
 1445 1648 1469 1618 1488 1571 c 0
 1507 1522 1519 1470 1522 1406 c 0
 1523 1387 1523 1370 1523 1352 c 0
 1523 1308 1520 1265 1514 1222 c 0
 1505 1162 1489 1115 1467 1088 c 2
 1465 1087 l 1
 1419 1030 1358 962 1289 887 c 0
 1220 810 1145 731 1066 651 c 1
 1127 653 1183 653 1234 653 c 0
 1253 653 1270 653 1288 653 c 0
 1353 652 1400 645 1427 642 c 0
 1466 636 1493 603 1512 538 c 0
 1531 473 1540 401 1540 326 c 0
 1540 251 1530 184 1514 120 c 0
 1496 56 1471 22 1440 20 c 0
 1350 12 1231 4 1087 2 c 0
 1015 1 943 1 872 1 c 0
 801 1 731 1 662 2 c 0
 521 3 398 10 289 19 c 0
 180 27 117 40 98 56 c 0
 73 71 59 140 57 262 c 0
 57 276 57 288 57 301 c 0
 57 402 66 478 87 527 c 0
 102 570 167 642 280 742 c 0
 392 842 517 947 644 1051 c 1
 521 1053 413 1062 321 1075 c 0
 228 1088 174 1102 156 1117 c 0
 143 1125 134 1149 126 1193 c 0
EndSplineSet
Validated: 1
EndChar

StartChar: glyph251
Encoding: 43 43 64
Width: 2713
VWidth: 2237
Flags: WO
LayerCount: 2
Fore
SplineSet
1608.29296875 1482.8046875 m 4
 1688.07421875 1586.06152344 1759.51953125 1665.90039062 1821.43945312 1718.06152344 c 4
 1850.01953125 1741.48046875 1898.84179688 1759.57714844 1977.43359375 1769.15820312 c 4
 2045.30859375 1777.67285156 2119.13476562 1785.12597656 2195.34570312 1785.12597656 c 4
 2203.6796875 1785.12597656 2213.20703125 1784.06152344 2221.54296875 1784.06152344 c 4
 2306.08789062 1782.99609375 2384.6796875 1776.609375 2451.36328125 1767.02832031 c 4
 2518.046875 1757.44824219 2560.9140625 1741.48046875 2570.43945312 1721.25390625 c 4
 2587.11132812 1688.25488281 2601.40234375 1587.12597656 2610.92578125 1421.06347656 c 4
 2620.453125 1253.93457031 2624.02734375 1074.03320312 2624.02734375 879.227539062 c 4
 2624.02734375 684.421875 2619.26171875 506.6484375 2609.73828125 340.583984375 c 4
 2600.2109375 174.520507812 2581.15820312 77.6513671875 2558.53320312 46.7802734375 c 4
 2540.671875 27.619140625 2452.5546875 13.7802734375 2291.79882812 10.5859375 c 4
 2238.21289062 9.5224609375 2192.96484375 6.328125 2148.90429688 6.328125 c 4
 2063.16796875 6.328125 2001.24804688 11.650390625 1957.18945312 19.1025390625 c 4
 1930.9921875 22.2958984375 1909.55859375 90.4248046875 1886.93359375 220.294921875 c 4
 1864.30859375 350.165039062 1848.828125 480.03515625 1841.68359375 612.034179688 c 5
 1825.01367188 596.067382812 1794.05273438 569.454101562 1748.80078125 525.809570312 c 4
 1702.36328125 482.1640625 1655.921875 442.77734375 1604.71875 398.067382812 c 4
 1553.51367188 353.358398438 1507.07421875 312.907226562 1458.25195312 279.907226562 c 4
 1408.24023438 246.908203125 1376.08789062 228.811523438 1353.46484375 228.811523438 c 4
 1330.83984375 228.811523438 1297.49609375 246.908203125 1251.05664062 278.84375 c 4
 1204.6171875 310.778320312 1158.17578125 346.971679688 1108.16210938 391.680664062 c 4
 1058.15039062 435.326171875 1015.28320312 471.51953125 971.224609375 513.03515625 c 4
 927.1640625 554.55078125 898.5859375 583.29296875 881.916015625 598.196289062 c 5
 872.388671875 474.712890625 855.716796875 348.036132812 834.28515625 220.294921875 c 4
 812.849609375 92.5537109375 792.607421875 25.4892578125 768.791015625 19.1025390625 c 4
 736.640625 10.5859375 687.818359375 5.263671875 624.70703125 4.19921875 c 4
 587.79296875 3.1337890625 550.87890625 3.1337890625 513.96484375 3.1337890625 c 4
 487.767578125 3.1337890625 459.1875 3.1337890625 430.609375 4.19921875 c 4
 366.306640625 6.328125 309.15234375 12.7158203125 257.947265625 21.23046875 c 4
 205.55078125 27.619140625 173.400390625 38.2626953125 168.638671875 46.7802734375 c 4
 146.013671875 75.521484375 126.9609375 175.5859375 116.2421875 343.779296875 c 4
 105.52734375 511.970703125 97.19140625 696.130859375 96 892.001953125 c 4
 96 925.000976562 96 954.806640625 96 986.7421875 c 4
 96 1144.29003906 98.380859375 1294.38574219 105.52734375 1434.90234375 c 4
 112.671875 1600.96582031 128.15234375 1695.70703125 146.013671875 1722.31933594 c 4
 157.919921875 1741.48046875 201.98046875 1758.51269531 268.6640625 1768.09277344 c 4
 335.34765625 1777.67285156 413.939453125 1785.12597656 496.103515625 1786.18945312 c 4
 578.265625 1786.18945312 660.4296875 1778.73828125 737.830078125 1769.15820312 c 4
 815.232421875 1759.57714844 864.0546875 1741.48046875 892.6328125 1718.06152344 c 4
 954.552734375 1665.90039062 1027.18945312 1586.06152344 1108.16210938 1482.8046875 c 4
 1189.13671875 1379.546875 1272.49023438 1270.96582031 1357.03710938 1156 c 5
 1442.7734375 1270.96582031 1527.31640625 1379.546875 1608.29296875 1482.8046875 c 4
EndSplineSet
Validated: 524289
EndChar
